<mxfile host="app.diagrams.net" agent="Mozilla/5.0 (Macintosh; Intel Mac OS X 10_15_7) AppleWebKit/537.36 (KHTML, like Gecko) Chrome/135.0.0.0 Safari/537.36 OPR/120.0.0.0" version="28.1.1" pages="7">
  <diagram name="overview" id="khjMui8SULHRm5ARyRQg">
    <mxGraphModel dx="1415" dy="1007" grid="0" gridSize="10" guides="1" tooltips="1" connect="1" arrows="1" fold="1" page="0" pageScale="1" pageWidth="850" pageHeight="1100" math="0" shadow="0">
      <root>
        <mxCell id="0" />
        <mxCell id="1" parent="0" />
        <mxCell id="JwZhCow-YJLhXUt54VzM-3" value="" style="rounded=0;whiteSpace=wrap;html=1;dashed=1;" vertex="1" parent="1">
          <mxGeometry x="645" y="372" width="504" height="386.25" as="geometry" />
        </mxCell>
        <mxCell id="JwZhCow-YJLhXUt54VzM-2" style="edgeStyle=orthogonalEdgeStyle;rounded=0;orthogonalLoop=1;jettySize=auto;html=1;" edge="1" parent="1" source="UzYDV7pSfleydXYVI9vg-13" target="JwZhCow-YJLhXUt54VzM-1">
          <mxGeometry relative="1" as="geometry" />
        </mxCell>
        <mxCell id="UzYDV7pSfleydXYVI9vg-31" value="" style="rounded=0;whiteSpace=wrap;html=1;dashed=1;" parent="1" vertex="1">
          <mxGeometry x="211" y="426" width="149" height="280" as="geometry" />
        </mxCell>
        <mxCell id="UzYDV7pSfleydXYVI9vg-10" value="" style="rounded=0;whiteSpace=wrap;html=1;dashed=1;" parent="1" vertex="1">
          <mxGeometry x="211" y="100" width="149" height="280" as="geometry" />
        </mxCell>
        <mxCell id="UzYDV7pSfleydXYVI9vg-9" style="edgeStyle=orthogonalEdgeStyle;rounded=0;orthogonalLoop=1;jettySize=auto;html=1;entryX=0;entryY=0.5;entryDx=0;entryDy=0;" parent="1" source="UzYDV7pSfleydXYVI9vg-1" target="UzYDV7pSfleydXYVI9vg-10" edge="1">
          <mxGeometry relative="1" as="geometry" />
        </mxCell>
        <mxCell id="UzYDV7pSfleydXYVI9vg-12" style="edgeStyle=orthogonalEdgeStyle;rounded=0;orthogonalLoop=1;jettySize=auto;html=1;entryX=0;entryY=0.5;entryDx=0;entryDy=0;" parent="1" source="UzYDV7pSfleydXYVI9vg-1" target="UzYDV7pSfleydXYVI9vg-31" edge="1">
          <mxGeometry relative="1" as="geometry" />
        </mxCell>
        <mxCell id="UzYDV7pSfleydXYVI9vg-1" value="User" style="shape=umlActor;verticalLabelPosition=bottom;verticalAlign=top;html=1;outlineConnect=0;" parent="1" vertex="1">
          <mxGeometry x="-72" y="296" width="93" height="215.75" as="geometry" />
        </mxCell>
        <mxCell id="UzYDV7pSfleydXYVI9vg-4" style="edgeStyle=orthogonalEdgeStyle;rounded=0;orthogonalLoop=1;jettySize=auto;html=1;entryX=1;entryY=0.5;entryDx=0;entryDy=0;" parent="1" source="UzYDV7pSfleydXYVI9vg-2" target="UzYDV7pSfleydXYVI9vg-10" edge="1">
          <mxGeometry relative="1" as="geometry" />
        </mxCell>
        <mxCell id="UzYDV7pSfleydXYVI9vg-2" value="S3&lt;br&gt;Static Files Deployed" style="outlineConnect=0;dashed=0;verticalLabelPosition=bottom;verticalAlign=top;align=center;html=1;shape=mxgraph.aws3.s3;fillColor=#E05243;gradientColor=none;" parent="1" vertex="1">
          <mxGeometry x="501" y="193.5" width="76.5" height="93" as="geometry" />
        </mxCell>
        <mxCell id="UzYDV7pSfleydXYVI9vg-3" value="CloudFront&lt;br&gt;Serve static files" style="outlineConnect=0;dashed=0;verticalLabelPosition=bottom;verticalAlign=top;align=center;html=1;shape=mxgraph.aws3.cloudfront;fillColor=#F58536;gradientColor=none;" parent="1" vertex="1">
          <mxGeometry x="247.25" y="184" width="76.5" height="93" as="geometry" />
        </mxCell>
        <mxCell id="UzYDV7pSfleydXYVI9vg-14" style="edgeStyle=orthogonalEdgeStyle;rounded=0;orthogonalLoop=1;jettySize=auto;html=1;exitX=1;exitY=0.5;exitDx=0;exitDy=0;" parent="1" source="UzYDV7pSfleydXYVI9vg-31" target="UzYDV7pSfleydXYVI9vg-13" edge="1">
          <mxGeometry relative="1" as="geometry" />
        </mxCell>
        <mxCell id="UzYDV7pSfleydXYVI9vg-32" style="edgeStyle=orthogonalEdgeStyle;rounded=0;orthogonalLoop=1;jettySize=auto;html=1;" parent="1" source="UzYDV7pSfleydXYVI9vg-11" target="UzYDV7pSfleydXYVI9vg-30" edge="1">
          <mxGeometry relative="1" as="geometry" />
        </mxCell>
        <mxCell id="UzYDV7pSfleydXYVI9vg-11" value="Route 53" style="outlineConnect=0;dashed=0;verticalLabelPosition=bottom;verticalAlign=top;align=center;html=1;shape=mxgraph.aws3.route_53;fillColor=#F58536;gradientColor=none;" parent="1" vertex="1">
          <mxGeometry x="250.25" y="444" width="70.5" height="85.5" as="geometry" />
        </mxCell>
        <mxCell id="JwZhCow-YJLhXUt54VzM-4" style="edgeStyle=orthogonalEdgeStyle;rounded=0;orthogonalLoop=1;jettySize=auto;html=1;" edge="1" parent="1" source="UzYDV7pSfleydXYVI9vg-13" target="JwZhCow-YJLhXUt54VzM-3">
          <mxGeometry relative="1" as="geometry" />
        </mxCell>
        <mxCell id="UzYDV7pSfleydXYVI9vg-13" value="API GTW" style="outlineConnect=0;dashed=0;verticalLabelPosition=bottom;verticalAlign=top;align=center;html=1;shape=mxgraph.aws3.api_gateway;fillColor=#D9A741;gradientColor=none;" parent="1" vertex="1">
          <mxGeometry x="423" y="519.25" width="76.5" height="93" as="geometry" />
        </mxCell>
        <mxCell id="UzYDV7pSfleydXYVI9vg-25" style="edgeStyle=orthogonalEdgeStyle;rounded=0;orthogonalLoop=1;jettySize=auto;html=1;exitX=0.25;exitY=1;exitDx=0;exitDy=0;" parent="1" source="JwZhCow-YJLhXUt54VzM-7" target="UzYDV7pSfleydXYVI9vg-24" edge="1">
          <mxGeometry relative="1" as="geometry" />
        </mxCell>
        <mxCell id="UzYDV7pSfleydXYVI9vg-28" style="edgeStyle=orthogonalEdgeStyle;rounded=0;orthogonalLoop=1;jettySize=auto;html=1;exitX=0.5;exitY=1;exitDx=0;exitDy=0;" parent="1" source="JwZhCow-YJLhXUt54VzM-7" target="UzYDV7pSfleydXYVI9vg-26" edge="1">
          <mxGeometry relative="1" as="geometry" />
        </mxCell>
        <mxCell id="3O1eICE3V5ZhLmUcmQr_-3" style="edgeStyle=orthogonalEdgeStyle;rounded=0;orthogonalLoop=1;jettySize=auto;html=1;entryX=0.416;entryY=0.094;entryDx=0;entryDy=0;entryPerimeter=0;exitX=0.75;exitY=1;exitDx=0;exitDy=0;" parent="1" source="JwZhCow-YJLhXUt54VzM-7" target="3O1eICE3V5ZhLmUcmQr_-2" edge="1">
          <mxGeometry relative="1" as="geometry">
            <mxPoint x="834" y="632" as="sourcePoint" />
          </mxGeometry>
        </mxCell>
        <mxCell id="UzYDV7pSfleydXYVI9vg-15" value="EKS" style="sketch=0;points=[[0,0,0],[0.25,0,0],[0.5,0,0],[0.75,0,0],[1,0,0],[0,1,0],[0.25,1,0],[0.5,1,0],[0.75,1,0],[1,1,0],[0,0.25,0],[0,0.5,0],[0,0.75,0],[1,0.25,0],[1,0.5,0],[1,0.75,0]];outlineConnect=0;fontColor=#232F3E;fillColor=#ED7100;strokeColor=#ffffff;dashed=0;verticalLabelPosition=bottom;verticalAlign=top;align=center;html=1;fontSize=12;fontStyle=0;aspect=fixed;shape=mxgraph.aws4.resourceIcon;resIcon=mxgraph.aws4.eks;" parent="1" vertex="1">
          <mxGeometry x="882" y="374" width="35" height="35" as="geometry" />
        </mxCell>
        <mxCell id="UzYDV7pSfleydXYVI9vg-24" value="Elastic Cache&lt;div&gt;TenantA&lt;/div&gt;" style="outlineConnect=0;dashed=0;verticalLabelPosition=bottom;verticalAlign=top;align=center;html=1;shape=mxgraph.aws3.elasticache;fillColor=#2E73B8;gradientColor=none;" parent="1" vertex="1">
          <mxGeometry x="682.5" y="822.25" width="53" height="69" as="geometry" />
        </mxCell>
        <mxCell id="ajUbW3nXZHwBiihvLf2w-5" style="edgeStyle=orthogonalEdgeStyle;rounded=0;orthogonalLoop=1;jettySize=auto;html=1;entryX=0.5;entryY=0;entryDx=0;entryDy=0;" parent="1" source="UzYDV7pSfleydXYVI9vg-26" target="ajUbW3nXZHwBiihvLf2w-2" edge="1">
          <mxGeometry relative="1" as="geometry" />
        </mxCell>
        <mxCell id="UzYDV7pSfleydXYVI9vg-26" value="Aurora Postgres&lt;div&gt;TenantA&lt;/div&gt;" style="sketch=0;points=[[0,0,0],[0.25,0,0],[0.5,0,0],[0.75,0,0],[1,0,0],[0,1,0],[0.25,1,0],[0.5,1,0],[0.75,1,0],[1,1,0],[0,0.25,0],[0,0.5,0],[0,0.75,0],[1,0.25,0],[1,0.5,0],[1,0.75,0]];outlineConnect=0;fontColor=#232F3E;fillColor=#C925D1;strokeColor=#ffffff;dashed=0;verticalLabelPosition=bottom;verticalAlign=top;align=center;html=1;fontSize=12;fontStyle=0;aspect=fixed;shape=mxgraph.aws4.resourceIcon;resIcon=mxgraph.aws4.aurora;" parent="1" vertex="1">
          <mxGeometry x="735.5" y="932.25" width="61" height="61" as="geometry" />
        </mxCell>
        <mxCell id="UzYDV7pSfleydXYVI9vg-30" value="Global Accelerator" style="sketch=0;points=[[0,0,0],[0.25,0,0],[0.5,0,0],[0.75,0,0],[1,0,0],[0,1,0],[0.25,1,0],[0.5,1,0],[0.75,1,0],[1,1,0],[0,0.25,0],[0,0.5,0],[0,0.75,0],[1,0.25,0],[1,0.5,0],[1,0.75,0]];outlineConnect=0;fontColor=#232F3E;fillColor=#8C4FFF;strokeColor=#ffffff;dashed=0;verticalLabelPosition=bottom;verticalAlign=top;align=center;html=1;fontSize=12;fontStyle=0;aspect=fixed;shape=mxgraph.aws4.resourceIcon;resIcon=mxgraph.aws4.global_accelerator;" parent="1" vertex="1">
          <mxGeometry x="246.5" y="584" width="78" height="78" as="geometry" />
        </mxCell>
        <mxCell id="3O1eICE3V5ZhLmUcmQr_-2" value="OpenSearch&lt;div&gt;TenantA&lt;/div&gt;" style="points=[];aspect=fixed;html=1;align=center;shadow=0;dashed=0;fillColor=#FF6A00;strokeColor=none;shape=mxgraph.alibaba_cloud.opensearch;verticalAlign=top;labelPosition=center;verticalLabelPosition=bottom;" parent="1" vertex="1">
          <mxGeometry x="797.9999999999999" y="830.75" width="60.3" height="60" as="geometry" />
        </mxCell>
        <mxCell id="JwZhCow-YJLhXUt54VzM-17" style="edgeStyle=orthogonalEdgeStyle;rounded=0;orthogonalLoop=1;jettySize=auto;html=1;exitX=1;exitY=0.5;exitDx=0;exitDy=0;" edge="1" parent="1" source="ajUbW3nXZHwBiihvLf2w-2" target="3O1eICE3V5ZhLmUcmQr_-2">
          <mxGeometry relative="1" as="geometry" />
        </mxCell>
        <mxCell id="ajUbW3nXZHwBiihvLf2w-2" value="PGSync" style="shape=image;verticalLabelPosition=bottom;labelBackgroundColor=default;verticalAlign=top;aspect=fixed;imageAspect=0;image=https://cdn-icons-png.flaticon.com/512/4233/4233601.png;" parent="1" vertex="1">
          <mxGeometry x="731.5" y="1053.25" width="69" height="69" as="geometry" />
        </mxCell>
        <mxCell id="JwZhCow-YJLhXUt54VzM-1" value="Keycloak Authorizer" style="shape=image;verticalLabelPosition=bottom;labelBackgroundColor=default;verticalAlign=top;aspect=fixed;imageAspect=0;image=data:image/png,iVBORw0KGgoAAAANSUhEUgAAAQAAAAEACAYAAABccqhmAAAAAXNSR0IArs4c6QAAAERlWElmTU0AKgAAAAgAAYdpAAQAAAABAAAAGgAAAAAAA6ABAAMAAAABAAEAAKACAAQAAAABAAABAKADAAQAAAABAAABAAAAAABn6hpJAAAz80lEQVR4Ae19aZBdxZVm1vZq36vQrioktFkskm2wA2PAAz3R9rCIGONhzLDabtM2bvTHjAc3gTqYaNO4HSNm7LHDg7slAQ1j47YkNLjbQBsb3OOxsA1CgCTQVkJCS5VqVS2v6lXN+Z7eLd26dfd78m4vM0Kq++6Sy5eZJ0+e72SmECooBBQCCgGFgEJAIaAQUAgoBBQCCgGFgEJAIaAQUAgoBBQCCgGFgEJAIaAQUAgoBBQCCgGFgEJAIaAQUAgoBBQCCgGFgEJAIaAQUAgoBBQCCgGFgEJAIaAQUAgoBBQCCgGFgEJAIaAQUAgoBBQCCgGFgEJAIaAQUAgoBBQCCgGFgEJAIaAQUAgoBBQCCgGFgEJAIaAQUAgoBBQCCgGFgEJAIaAQUAgoBBQCCgGFgEJAISALgRJZEScx3s985jNrysrKNlLer0pi/lWeHRE4TG+sf+6557Y6vlkkLygBUKjodevWNeVyuUP0s7FI6r5oi0n1vPb5559/vWgB0BW8VHdd1JeTk5PrCQDV+YugFRS0vCIoqXMRy5xfSf8bNPp3kgD4WfpLqkpYQKBzxYoVh/ft21f0WoDSAKhFkEq4SXWNokNgA6Z9RVdqQ4GLXgBcd911VxMmyuhnaBhF8LOjMO0rgqJaF7HoBUBJSckma3jUkzQjMDU1tR7TvzSX0alsRS0Arr/+ehj+OpxAUs9Ti0AjTf82pLZ0LgpWtDQg5n+K9nPRQorgFdIEPrVjx46Xi6Cos4pYtBoAdf6NhIai/WY1ieK7QdNAtIWiDEVJA8Ljr7S09PtFWeOq0GYIzC1WWrAoNQDlCGLWB4r+3kZMC4sNhaITAGT4W0eVrGi/YmvpzuVtLEZasOgEALWDop3vOfeB4n6DjIEPFRstWFQC4IYbbthATVzRfsXdz21LXzAO276TpodFQwNCslPlvk6Vpyz/aWrBEspSTLRg0WgA1Pk3qM4vobekMMpi8g4tChoQ/v5Uqf8thW1VFUkOAk1EC/bTasHfyok+PrEWhQZAnX9DfCBXOUkIAkWxWjD1AoBovzupwSnaLyG9LkbZbJyYmNgQo/xIyUqqjYBw7CgY/pTlX0rzSX+k5DR2/tatWw+ltaSp1gAKjh2q86e19YZQLhpANoWQTGRJpFYDKNB+ByNDViWcJgRuSutOwqnVAEhyK4+/NHXBaMuS2raUShqwQPt9K9o2o1JPEQJNK1euLNm7d+/LKSpTviip1ACKeX132hpoXMpT2D6sKS754cpH6gRAgfa7hAsgFY9CoIAAtg9L3VQgVUbAAu13iCpM+furfisFARICqTpVKFUaQMFxQ3V+KU1fRQoE0raZTGqMgKD9aJ72tGqmCgHJCKTqVKHUaABpd9iQ3KhV9N4QSM06gVQIAHW6j7fWq94OjEBqThVKhQAopvXbgZuuioAFgQIt2MkSWYSRJF4AqNN9Imw9xZ10Kk4VSjQNmATab7iqThyZs5Slq9SODYmFx/ezxCUrkuELLha5eZ0s0WcO7xWVXXtZ4pIVSdK3DyuXBUwY8RYcM2JL++3tuETsW3wxGxQZMSW6V39CrHlpC1ucnBG9dcXNonLt5aKmrp4n2iuEqN35omh88Rme+CTEUths5moJUYcSZWKnADjdhxC6IxSUfCQyUNvC2vmRheySC8WRlR8XPQuW+8iR3E+G61vFgUs+JfaLKtaEzlx6rRhbvII1TubIrip4nzJHG050iRUAcXfI2L30o6w1WFlZKURdQz7OP15zO2vcHJG9fu3ZPGUnp8SpwSGOKKfj6Lvu7unrmF5sxHQ0pnmzzVYiBQBJ3HVUqqtsSxbhw+Oti0RP4xy2HJRN5sTY+aun4xupb6HR9t9M/476AhpJz/xl09k4KjJCTIxP/w56kWtsFWcu/ZOg0cj8PrGnCiVSAFBNxnpRxu6ll7I2tpKW84TIkAagC/su+3divLJadye6S6NGkpsS4sjoBGuGBj95g5isqmGNkzMyMgYm8lShxAmAuJ/uA8PfSGUtW9uqmJoUEwuWzIpvPFMt9l163az7Yd/YS4IIGokxnJwsE7kzg8bbvn9PkrAbuPYW39+H8WESVwsmSgAU/P3Xh1GZftIYL8+Ig/NX+fnU8pvJ+Z20AsWcrIHRDca3qAI0kIM2U5H9JbwayvBFl4vxOYuiKq6bdG8seKW6eTcW7yRKAJCE3UCoxZb2e2vJR8V4eQVbxVaSl0aufYFtfJrxzfYlSQ9B+0ETsQqDE5NiqL/P6rGv+/0x1wKSthlNYgRAQbLGlvaD0Y/L4UfrGWPkVOMUYHw7vuQSp9fYnw+0LcxTkk4RHyyj6dB41uk118+zRAmOLl/r+v0IXryk4J0aQdLek0yMACg4XHgvYUhfYO7PGfK0X7U7W8JuGonDDrs/6S7NPC04yicAUM64awGUxcSsFkyEACg4WsSW9sPIz0r7keHPzeivdXoY4WCMCytA49DTfk7pghacHB12es31c9CCYAViHBJzqlDsBUDBwSK2tB8Mf9yjf0lzu6Xhz6rRwxgXBi2INLxqHKAFu3iVgLxfQK6xzQqOyO+TxnofjNaRZ8QhA7EXAIXTfWJr+DuwYBU/7bfYu6svjHEwyskOcEAyo/2c0u0R5WJ8sN/pNdfPQQvGXAsQSdikJtYCoED7PeS6VYT8Ilb6cS72QfYnF/pfOYh1AjDOyQqgHO1oP6d03yvldeQBLRj3dQJxpwVjLQDi7lgB2o8zZMrIeaZ1bqAo3Rrn/CSS9z60of2c4hymuQA3LRh3LYCmApuccInyeWwFQEFy3hglOHZpw+gHn3/OkF0WnEmQRQvC3x8aRtCQ1wKYacHhiz8RNFsyv+8oeK/KTMN33LEVAHF3qOD298/U0hp6g7+/31qVsVCoe8G5xT5+84XvYBA8xUwLDl4R/3UCxGRtKhi0g8DH/m0sdwT6zne+8901a9Z8ddkynkYXFLUzZ86IPC9fiOjZQ93i/tcOBY12+vuq8jIxuuLDni3/0xEYLj5WPSWeXsS7GOexnjLxWA/fePGJxgoxOsXX/G6uzYqb685SDX19faK8vFxUV1cLWqRjQIfv5/DwsMhkaOWjh5DNZvN58/CJ1FfNncylJmkf+eOPP95x5ZVXfqWqindjCftUrZ+iAek7/8B4Tjz8xhHrD3w8mYJ/u4W/v4/oxJ/UTfr5zPabVZW8HWnXmZxYXsPX/H5yJiM+mRkTbaU5UVdXly9L3Do/MgWh0dBwdl8HW8BDesgn0pkyvGjRoueo8/MNDQHzNTAwMCOGx94+JgZJCHCF+qpKMdY6jys6saBiStzdzC8A/i0JFWgWXAHrBMoFbz43nwln0PAz8mu41da68+7U3pf9N1YC4Ec/+tEV8+fPv0h2od3GPzY2JvQV9v6ZMfH3755w+7mr9wbnX+DqPbcvfXsOn3Aypvntubxx/3GIN77fZyvE2+N8WoWx/PgdpPPj+4oKvsViiC9oiJUAWLVq1XN6dTto4YJ8D/WRaMgZUXydcd6PiJubm6e3+ZqRkM8fGKE/XsM3ShuzsZC0i7sYtQusE5gwYGxM0+vvJ4atVyd6jcv4ftDOr8UHm1JcQmwEwA9/+MO/XLx4cVNNDa+ziF+gBwcHZxh4fntqUPw/+scZeueczxmd4B6hzTJ3X2tO1DO2mt3DOVFRwie0Dk+UiZ+Pztw9yawcXu8NDQ3NaA9ev9e/X1rKCKA+Yh/XscnJ5Zdf/pCWf6IAtctI/kL1Nwqir+88yJqX+nnkscdE+yFjGJkxQssODdRiIAS4AmjBY6O8toCfDleJYUaGYXx8PM8ocJVZP63kitNvPLEQANu3b3+5qalpevIGqiTKQOsPZiT/dzTvPzrMl6dKov0GW/gMfxiROTvljMKb/ICRkZMV6BrLiSpGLQCd/1kSAhwBnR8jNjejQEfZc2QvcByRCwDQfh/60Ieu1JcEc62oAqz+ekMNaD9Y/jlDyXxS/RlpvwfPywmMzGGGB9v5tADkG7QgZ/gnmgacmgwGiqzOj3JG2cb1OAdDSB+Tz+uOjo6XjLSfcQT2GbXnzyDljar/w693sdJ+LXU1YrSJlvsyBYzEn22YqbEwRW0bDYyNnP4GoAVLDJqXbQZcPPzBkH97kszOj6zHZRoQqQDYvHnzfyDL/6zlb/X1TEdLuWgk+ldg6NGHt/uGxU8P9+hvBb4+fR6v4Y97JPZSwAfbeQXPLjIIcoZ3iBL0QwvK7vwoo17L5Cyz17giFQDk6vsDswx7da80i8PrPaj+cB3VB26Pv7Y2GvkLp/vo0/F7jRFYJu3nlC8YHe9r5RMCoAWHGJ2skH+vWkAYnV/DNQ50YGQCgEb//w7aTwPD+DdMJsBM9f/FsT5W2q+aDH/dbYuMxfT9G4Y/7hHYT2buaualBd8bzYlKOgSVK3STHQCsgJsQZudHfuJAB0YiAGD4+8hHPvLndpUSppHE6O6b9/enuT9nKG8nqz8j7QdLfBi0nxMGMD7CCMkVQAseJlaAM8AvwIkWDLvzo3xxsANEIgDOO++8zXraz6yywcWHEaCGGSsC7r6ctB/8/TlpP/j7Y+SNS4ARknOdwNGxSdIC+KYW6Pxbzsyc3umxi6Lza+lHTQeGLgDg72+k/TQw9H+5eVd93No10jC6HsPfH7w/Z5iY18lK+2HeHTbt54QHtx/Cm8N8AgB5//VYRsBL0Bii7PzIS5iarrHs+B26AKB5/yYj7WeWsdZW+Udewd3XGLhX+7U3NvjaRNOYL+03RtooaD8tfau/MEb+e0Y68iwtyKvlbDGsE4i68wNLo/Zpha+s+6EKgCeffHK9Ge0nq3B28Zq5+8Lfn5v2O3Vep102PD/jHmk9Z8DmA2gmnOsEdpEWkGH0EAQtCE0AIQ6dH/mImg4MVQB0dnY+jEK7DbKYAKj+xpV+yBO3x1+e9nN5uo8bTDDCRkn7OeURRsk7GsadXnP9HLTg6SzvVAAuwv3ZCSnuva4LZngxSjowNAHw4x//+HESAGe3ajEAYPXTTEW3etfLfeNKP3yLbb44V/thm6/uOZ1esmX7bp72Y7S22ybm8yEcqe5syon55Xw03t4RflrwF+O17L79PiHLfxYlHRiKAADt9+EPf/huryDJsJCaqf4ytvmqAO3H6O8P2i9uhj+tPrF4C7jCoFpfMim+2cq3cAppHBzlXTjzz2NVontytkFQK0/Yf6O0A4QiAED7uTH8GYHHxo7cwWydAWg/7m2+BtsXsWUdtF9c5/4Y9TGC6Uexa2ty4rIqPtX9gyyxNcy04D+O+V8nwFaxuohkDHa66C0vpQsA0H40+l9lmQObB9ybJxpX+iFp0H7cc3/ubb7i4PFnVk2Yu2LUN6NsH2DWAl5nXi34arZSvDMRn+25oqIDpQuApUuX/sSs8YR9D43UuNIPeeD292/Gjq+M/v6g/bAhZ5wCRn2MWHZrNlZlJsVNdXyqO04VGmfePuyp0fhs0BnVNECqAADtd8EFFwQ664qLCTCu9EOHAu33Avn8c4Ze5k0+Od1sOcppN+ob43+gdZxoQT6D4Fu0WrCCcZ1AV65cvJJ1t07AWDbu31HRgVIFwIUXXvhoUKBOnz4dNAqBRmtc6YdIH379SOC49RG0zCFZx+jvj22+PsS8H78+v16u3Yz6xvgaqPPf0cCnBeS3D2NeJwAtwGmdgLFcsn5HQQdKEwDPPvvsz2hdf+BJlt645Ad4M3dfxAN333f6+XYeAu13mnm1X1wMf15GfWMdfa15nJUW7MqvE+DTKtD5/3nMep2AsTwyfwdt637yJkUAgPa76KKLboQVP+iiHqOvvtdCGlf64XsZ23xxn+6Dzh817edn1Dern79p56UF32TeOORnxAjEgRaMwg4gRQDMnTt3q0b7BRUCZoY7s0Zmdg/CxwxUbn9/bPOVhNN9zDCyuhdk1DfGeVkVLy2YP1Voitcw+sMRTz5qxiKy/Q6bDmQXAHSw52do9F+jRySoEPBjCLRy95Vxug/3Nl8yT/fR14vZ9cjIiKOF3+w7p3uPtPMu7/4jMy24hyjBONCCYdOB7ALgYx/72FNmjSGIEPCzTbiZuy/yFffTfaLc5guYoZ7MeH2zOvVybwG5B9/OaBCUsX3Y/xqJZi9KPY5mGqv+Ofc1qwDA6T50uKflNl9+hYBXqWjm7gvguLf5Qpzcp/tE4fSjjfo0bUORpAUYBDlpQWwfRuKKLb/YPixqg2DYdCCrAKDR/yGn2vAjBMzcd+3SsXofW3xzBu7Tff6s5kzo23zJHPWNWIMWhBDgCqAF32emBWEQjJoWDIsORDpsAmDbtm0zTvexq2SvQsDLNuFm7r7ICwx/nNt8yTjd5yvzz65Vt8OO61lYo74xv/ALWEleglwB24dlpvh8DdD5IQSiDGHQgej88ORkEQCg/VauXHmlF9C8CAE7l1N9mlbuvqD9uLf5knW6Dzqm7BDmqG9Wlm+ShyBn2M0MGaYBuyUfM25Xftl2AGyGotHrLAJg4cKFs073sSug9syLEHDDBJi5+yIt7tN9sM2XrNN9ZBjgNLyjGvW19LW/a8tGxZUVo9rPwH9BC04xnrWHlYd/28t/wrCXgsqkA9GXtHYWWAB897vf/WKQbb7cCgEnQyBUfzN3Xxmn+5xq5Vvqi0ahP90Hfg9+WA+nxhXlqI+04dI9OjqapxiRV3YtYHSKbZ0ANiTdOVYmXhrhX47uVE/ac6f2rr3n9S8M5Frnx7eBBcCaNWu+7TUTxvfdCAG7TmGl+iMd7tV+3Kf7mG3zFdR7Uo8v1D2M/LIt/Po0+/r6RE9PT37bNaSPtGHHKSsrm258C8onxVca+HwD8tuHMZwqVE4ORtAoEB7pk8uK6DEzXsuYBuSNfrR3gz7M/KV/4uL6mWeeedyO9nMRxfQrTkLAyrKPCMzcfXGfe5svGaf7mB2t5cXoiXJaBW1KBGxlBXTw3t5eobkN4zcaL/ZysKsz5Oe2ujFRx7hacP8oGQQDbhyidzA6NlEqvtcfzVSAmw6ERmFmS/MtAGD4I9X/Ds6GZScErLYJh1Qzk5Yy/P3DPN1H67x+8NVGfc3Q4ycOq2/M1Pm6ujrLjUGs4sF9+AR8o5HPFgBasIuEgN+QJTsCNAl9eGIoIwYnS/S3QrtG2+YIaA9WAsW3AGhvb3c83cdP5u2EgDE+qP5WjTzpp/tYlcuIgfG3Jji4Rn036rwxD15+r6vNio9W8tF4R2kX4cyU9/ME4FD09shs4YHO/62IpgIcdCCmznYGdF8CANt8eaX9vDQKKyFgLAhGI7OQhtN9ILHt7B7GcnOM+ojDrzpvzI+X319ltAUg3Td8nCr0PnkVQoMwC9vO0DqBrK+uYhad63tmmq3rjwsvYhqmN/oZv/dVqnnz5v2DttrPGCHXbzMhoO/wVu6+SJ97tV9Up/u4FQB+R31OdT5IvV9KGsCNNXxLhrF9mMi51yoqSWOA5mAXvkW0IPDiNNDapac9C0IHYt4Pw6td8CwAtmzZsn716tW8PJhFDo1CQAMDEs3sYA9Ek4TTfdxu84W5tV3wOurLVuft8ur0DIwAp0HwddIC3G4f9uaIxdCvy/TvsxXiF1ON+d2P0bGApd3Iqvs00KVfOhD2A6t5vz5DngUAqf5/rY9A9rVeCOAaAZLYzKKJZ9zbfMk43cfLNl96rQfl04LTqB+VOq/lz+tf0IK31/FpAVACTruhBSdz07SfU56/P1STNwiiY0E9x4AEQeDEdjjFa/fczzTAyuJvlo69fmD4ArQfCYDLDLel/4QxBA0aYMCZxMpABtrv6YOn2PKDbb4GOlaRt4RnOWmaB5zus2nhhKj0YFRG2fVqHKYFaHhG6Q5BAamvt5NASGpC0zRDMbu5siInfj5cIQbJH58j9ExMiU4COyfM44OG8AbtK2A19zfmYYjyhbr7aOacKzMwhiYA7FEvVgOTMS63v/V17+Yb9BMvde66ZYP2W7t27d1uMiHjHU0T0DdwfTppPd1HbwzEqA+BgH9xVuf19eLlGrTgf27iowWR9kE6WswqQEMw0n5W72r3nzxTJY7lZncbeKGi86MDck8PvNCB6B9epiauPURA+8k2/Gkg6/+iMBjdMOeHRxkANo5+eP/xvdyn+xD/y3i6z7zSnLh16iS5xJZ6qiCUDcIPmg8w0LzpNNVQpvqJtMMO11SP52nB18ZcN03bLB4fnxKLK2mUL52p7MJhCI5DXgO0gEcHasXGZnMGCvFp0wN0XAgGK43VbdpuOzTaiFeNwVw3MuQMtN+11177iuG2tJ8oMAoDALWGriUG6drUNHPPESzzvebFPdorPH+XrGY94GPL3FE6Lst6NLLLNAQgJDv+BW1MdunE5dme8TLx2RP2BlAvec2UloiL6mZuUH2czht0svzbpfF4y8CMqYDduxi00KaxzsNKg7X7Hs+cBD36ip/px2xdxiQnHR0dPzO5zX4LI9yJEyfynR+RGzs/7plJuL/efQyP2EJzA20NxXi6z6X5TTH9dX4IQlQstACU3cooyFb4GEQEWwAnLQg1H15+WoCjUJDOj3geHXC/ZwA0VtQhbARYI+F2RNfyi7/41ir47fyIz1EAgPZbtmxZm1XiQe9DssH5BP78MHA5nQdo9JP/XfeQeOn4QNBszPi+d/6yGb+D/nikzf+iF63itY4PlRJCIWw+OigGXr//BtkCOGlBePlptOBuF7SfU373TZSL7SPe1wmgfaNO+/v7PdWhFR2oDRBO+bV67igAGhsb11l97Pc+JCA6PDo+GjLm9mbzejfx/w+a+3OGZubTfdbR+XjYENNPgNFPwwWGPy0UgzYAg+A6RucgWPqP0vZhU+QgpK320/D0+xe0oN+A6QDqFB0bfcFJKzDThr1a/M3yymNpMYvZcA8FhLRCgVF4NGytcRtedfwJwdHc3Oz4ntcXKucsEPULF4sl1Xxbc3Vk/HV+4KXHB05BxkaiaQNptQ209R4X4siQ12q0fP94Y4s41jbP8nkUD7R+AK0AgqClpcXUToD3UP/6NoBvMBgECY5fk6qylRK4ym8imNd3d3dPq/bo/EGDfjS8Y2m72NnDsGqqrFyUzFkoTtFUq4X6bJkr86hzSf4wnhGnJkdFe6k3izOMnW6w0hoApgjG6ZFz7uL7xiBRdI+/SwKgsDY/cE6pfqvOX04+BoFjmo7gxmr/U7vpSHQX2vQAAyWEutETFHN9rU1gINUPELpobC+hNUCzRPyYfrtq5q+++mqvl3X/2rxek262OWJ4eNtv9gcWAs2dF4jehvZ8bpaQt0dz5UyrcZBsfrIyK+6pdS+kIOXN1gFAKNCUzDIrGBHAEvi1NFtGHMGD//nuKYF/XKFuYYcYapnPFZ2YVzYpft7eyxafWUTorGgHqHPUKYQ8pgJORj9jJ9fsamZMwrmJpVkOCvf27t17vc3j/CM0WmQQWz9pC3X8SCindMyeP3BhwIqlE321zo/4D4xRWbhGHorvlbGMeMfDJpOY4pgFveZj9hzaADQuzWBo9k4S7h0dGWft/DixeaJlLmvR7693L9D9Joz+gw4PwQ7hD+GuGf3QydFOcB99Du/gHwQG+iK+g7YALQId36zzI1+uBMAXvvCFV998883XjQVBQthuCtQGMoYGiHlpGEFvFV3VWC3WLfJvE2heumJWlofHrWmXWS+7uPHTEXe4oKLMDD5IQpPkTsmhDqDmoX6SGP7mbVL9GUNTx1Ix6q6pu0r1I+QK/KkqvnULbhJFm0Cb17QCL53cLn5XAgARHD9+fB118nyLMvL12rzELiHuZ0YVGVpAfcVMby9XaRLf31tRO+vV98ndG/NQrvAO0Ua/Jk3AKXCN3mBWkqgNwJ7zLyesveyc8Jv1nOq3r9p62jTrfRc3Hm7kM0y6SC4/yEKrhgaIUR7CnSu47jHbt2/vv+KKKzpoPrIWiUftkQYJqJ9iVJaV5v26f+fRIFi/4mKRLTGXgzlKo5GECjmSsQQcPnlt1ZiosIgPWpS+TGaJOs3/jN8gPs1glATbwF/84X3RM8anfTUvWy1GSx1t3UbYLH/fWjMq/rQ6nNFfG+2RGU2bg4YIhzBo3n48/4wFM2/5xrcKv2+55Za7ac7BfAyDRWIOt82mGveumCPme6Dw6hd2isES68bRRwrAIONUAKfO/HzUeqdZjNhOwWouZ/ddUrSBJw6eFnsH+BYDVbbNEb1l3p11rLCsK5kS99QNWz1mvQ9HIWN70I/86Pz6334T9yQAkMi+ffse8JsY93eQkMbwwEUuDYJEC423zDF+Puv3B7RTjNcVY7Mi0d34x5EqogVnw47K1Cg93euzLt3aAWZ9SDfibBvAdOt77540y7a/e1S/Yn6nv28tvvpz6vych5uaJYMpINR9dHBt1Nfeg/qvDxxCYHZL1Kdgck0GwY0HDx7ktdKYpOPmlt4QqL1/7dwGcWnr7Dm99lz723b+Ba4MQ9heri87E3gtDr9/nxgO7gvhN+24agPfI8pviJF5qZu3QNCs2S9Ms74D7XdrLZ92YkwAgxnaMwYBKy3PbAoXVAj4Qqirq+tmYwGi+G1Fiz2ydpF9dqprRXeNe9bgSJaXFsT2UnpaEHSO09xfXyDM/4KGOGkDoP2ePHQ6aJHOfU+0Hyfnj4hlGv4w6kPdN+vg5wplvSIwiBDwJQC+/OUvv7pr165f6TMXxbWV59uCmoy4fYn1+iWM/l5DP7MWsKWgBUDN88qimE19vJYH78dFG/jmG0f9ZN/ym6Yls2ldy5ddPLiaHLn0uwC5+MTVK5j2afS5Ud03i8CunfgVAr4EADJ38uTJO8hQwasbm5Xa5z0YBM1oweqWNtFd7l0FP0El5aQFu3Jl4p9GK/OrwrwW0a4heI0L70epDYD2e+00o2ENtF/GeQroBaf7G3idfqDBgc2BNd9Nx9fyarYUXnuGv36EgG8BcO+99x4mg+BmfQaiuLbizRuIvoMQmBHIMFS+4PwZt7z86LLZO95LPNq7cA6aqvLeWL1MF7S0nP5GpQ18cxfvXg715O/PGe6pGxHzaf7PEaC5YdSHqm81fQ2ajlch4FsAIKO33XbbF48ePdoXNNNBvrcymCDOO2gaoKcF6+cttKX9nPIBN6jB7Gzmwek7q+egBbeN+9v5hsMOYJavMLUB+Pofo/k/V6g8bz7VL98aDtB+t9YEt7egfOj4mOd7HfX12LjVFrwIgUACAJk7dOjQX+kzGfa1kzr8yNqFZ7PE5A++n9YJcNKCL4zXiO4p1/5Y0/By2QGmI9RdhKENYDq15WCPLtWAl6D95joYfz0mAdU/KO0HQQ1aL0jHR7a91rdbIRBYAIAWfPfdd/d7xJbtdSd1+LK2OnENUYNti88XI+4WPzrmrXuMb9RCYj8a8+6qigqWHaANuNmswk8+HnnnBCvt17yok5X2W14+IW4IsNxXU/eBjZ2W6hY72Ay8BjdCILAAQKYOHz58jbZOwGsmOd53ko5YJ+CF9nPK0wfU/zlXC+7NZcQe+ucloHOGEaBhQXU187nwm/4e8vbb9j7jzJFoXf1qTr/50n93f4N/w6TmxedktNOn53Tt12bgJARYBEDBIPhrp0LIeu4kHUEL3tvEO2qfZPRXBy5+tAAnwceJNxoSlzbwCPNqPz+0rh0219PI74f2Qzu08uKzS8/NM6NbsJtvtHdQd1bGchYBgIQ+97nPXR0VLehmYdLtDeOB53MaoPiLdQK9WfqPKfSQHeCFcW+MAOeo7KYYHNrAS7TSj5P2q2pu9UXrWpUXhj+4/HoJEMSoC4zSHOq+Wdpu3MTNvtPuoY9AOBkDmwBAxG+//fbfGhMI47cbdbiBNpl8oIV3FdcHtMmk22Ol3OCwlRiB4Sn3VeJG8LlJ1+s7frUBGP641/pXLFziNfu27/8ncvf1Qvu59eKzTdTFQzdt3Cka0I9GIeC+tTnFTs/vuuuu/xI1LWiXzZtoh96VGR5OF+lgd+kBRlpwhGjBp7N0JoHLwNEoXCY16zU/2sAT5O7LSfvV0zZfdqs5Z2Xa4Ube398l7YeOj86EkdktPeeQfCiPjUKAVQCgBAcOHLgnlJIYEoHhxU3g1gKwfVj+PHo3ibt45zcT1aJr0j2XHaYdwCz7brUB+Puz0n5MtK6+TG5W+2lefHaLdvRxcl1zChm9EGAXAF/60pf+9+7du2dtH8YFhFU8budeOJ4Le/VzBk7nIOTLixYAX/KogxttAE4/nKv9Whd3Eq3L13yxzZcT7Sfbiy/MetSEAB+Cutzrtw/T3ZZ66eWcgK81ZVkNgtg+bGSCzyAIWvAPOeuNQ/RA+qWH9HFwXVtpA/D3Z6X9yN+/p6aFK9v5eO6vtzb8aYt2gjrz+M0w0pcRIASkCADQgmQQ3CYj0xxx4qSeOxp4tYBjZBDkDE+PubMFGPeO58yDn7jMtAGs9ecMcOriDKD9VlTMbg9cXnxB82rcCCRofPrvpQgAJPD5z3/+prBpQS+0GGjB+T6P7NIDqF2DFuTcOAS04Lasv3UCWp6i/KtpA1vJ4YeT9sM2X35Wc1phAdrPuMU37CraqOt2amkVP8d9jNSygjQBgAyTLeDrsjJuFq9xp2Czd7R7oAUxFeAM3NuH/WKCNi5xsU7AysmDs2x+4splqgSr0w/5+2fmLfaTFctvQPvp/f1hTNYW7Vh+FPIDmUJIqgDAOoEwaUGr/fSt6gu0II7u5grYPuwM4yaioAXdaAFxsgPosXzqcC+r4a+etvlipf1Kc9ObfMr04tNj4uca2pSsIFUAINPvvfee46lCXIVzWhhklo4MWpBznQBoQad1AnGzAwBn8P0/2M+42o9ov0HGo72Qx29UnMyvssNcX6YXH9IKEmQ6fEkXAGFvH+aVF19FjkHctCD3qUJ+9wwI0uiCfvvoXl7DH0734Qyg/eDvH8THnjM/UcUlXQCgYNg+LKzVgl4MgRro0AL080Dtvt+/oAUHGE8VAi0ITcAuOC2IsvuW+xmMfi+fZKSuJJzu81BtX37U92I34sbJbXycTkDGNEMRAKAF6WzBvzMmLuO3n/kwDILctOApWi3Iuk6AGAG7dQIyDUVe64l79G/u8L6Jq12ecbpPW24078KbBAFgV5agz0IRAMgktg87deoUz/5KNqW22inY5pP8o3uJEWClBSfpOGfGdQJnVwtab2Ya5MAQJ2y8PN9+bEDsG5y96sxLHPp3ZZzuc1vJuekJ/BbiHHD6r8wQmgBAIeJ0qpAZqI+08TVcxM+9fRhsAW5oQbOyhXEPxs9H95zkS0rC6T5/VjMkGstn8upu15HwFcx9TH40Wvexuzwe3EuEdu+GtX2YX14c6wQ4aUFg0cu8fdjTYw2WEEdtB/jBez2stJ+Mbb4+W9Y3a/VeXLQns4qVbaQMVQNAAY8dO3anbINgkPkwtxaQP2ac8cirP+YqLWnBIOU2a3xe7oH2e6qr18sn9u8S7ce9zdfXKqxpyTgsqrIHRM7T0AUAaEGaCvxaTnHOxhpkXod1AnAT5gx9jLYA5OvprLkWEOX+AA/u5j0ukvt0n6sy9tt8ybS0B2lLsrWT0AUAwJB9qpAfhyB9JWH/QE5a8ORECev2YUcmy01pwaDl1mPg5Rq03+97Ge27Ek73ube8e5bqry8jtkKPY5AtmCIRAGGcKuTHH0BrAKAFuTcR/YCZFvwH0gLMaEF4tYUdHnzrBGuS3Kf73J3pFwvKnXeC0hYAsRYmYGSpFADARPapQkH53TtoGsC7fRgvLZhfJ2ByqpBXT8iA7VPA3/8DxtN96vLbfLnfEckp/1jt9x+r3O2p73UtiVPaSXgeiQagASNz+zAO/2nudQLctKDZqUJB7B9avbj9C9rv+5z+/kT7TbTMdZu8q/f+InNa1Ar3C76CaI6uMuThpTC0uUgFALYPk3WqEIdBDLTgNTXuG4+buu0e5TUwGs8TCNMOAM6fdZuvzqVilHGPmjVlo+K6SuudfszqK0z8zNLX3zPu4Kt/xnUdqQBAIaI+VcgJyAdaeJ2DPqCNZzhXC5qdKhTGNGAvefs9R15/bIFO9+mp5d3m60tVg56zh80+w8DPTcZkbgSipR+5AJB5qhCHhxdoQW6D4EnJWkAYaiyrxx+1xlYa/TnDp8uHxFrSAPyEoPYjP2mafROGX0fkAgAFl3WqEBeA7KcK0TqBPkYPQeOpQhz2D7MGqd37Ja3046T9cLpPT4W3U5G0vJj9rS2ZFF/0MfprcYVpR9HSNPsrcyMQLb1YCABkRsapQl52CtYAMfsr41ShY9lJ3tWCulOFOOwfZjho91hX+5Hhr2Ih7yafN5f1i3mlszf51PLv5m8cKEHZghw4xEYAJOFUIc51AqDxBsb49iQ0niokax6LXX5Yab/8Nl98tN9c6vi3Tp2wdfpxIwCKhRKMjQBApcjYPszvwiCzRvI15hOGD1D/l3WqkAw7APz9nyTeny1ION3nvsre/HFdHPUeBg1nh6VsJyCkHSsBgHUC3KcKca6murRygmglXk87Ti0AFaqdKiRDfQTnz0r7Lepkpf3Wlo2JK8vP1g/KH3R1ZBhWeNRZlCFWAgBAcJ8qxKnKYXOGrzaOCXiXcYWjtE5gWMKpQtx2APj7s9J+ON2Hmfa7r2qmdhL04E4ZQtRtu5G9EYiWjzLtIi5/n3/++f4lS5a0k0PGZRxGPBznxBGgjmFzBiwSytL8/bUs37x1IjcpGivKRenMfSp8Z7ufjhi/ojAS+o7E8CF2+nmNccFP69IVYqSMb7vrT1ecETdVnN2HUK/1QY0P0pEHBgZEFAuFsDw5DBaAqckZWgvDz+uvvx4HjF7CEJWUKF68/b+KkXo+x5UFIivmNvCcBJTp2ivanvo2a7n3dlwi9i2+mCXOssYWketYwRIXIqnIjohrtvylqBjjnZ6xZfBsRJtpENnEHGeg6EhDOlQeKAaJHxNY62kO9kuJSQSK+sJXfyJ2fvrLgeLQf3yCWKuWySmRYVADqvfxH87c1necRwDkt/nipf2W/+7/xLrzUzv+q+3bt2/Q13dcrmNnA9CA2bFjx8t0HdsDRuceeEO0HntXy27gvxPlGXH89Mw5rJ9Iy/p7RO3OF/x8avtNa/8JgX9BQzk5/eQq+FT/6sHTYskb/xI0WzK/PxzXzo9Cx1YAIHM0f1+Pv3ENF77yE9asncrUBV4n0LRD3u7ra/b9a7DygvabvyRYHIav1760xXAndj9j3YZjLQC2bt16COpT7Kq0kKGG7vfFoj2/Zc3eiQBaAOb+lfRPVqgZHRJLju7xHX2mfZ7vb80+hAbWenSf2aO43PvVc889tzUumTHLR6wFADJMlveN9KffLPNxuLeabAEwQnGF/qp6cXrY3yKW5h1/z5UNy3iWd70hKiZ8LGkm2i/byisA1rwY79Gf2IhYj/6o5NgLANIC+iifsQUSlmcYoTjDkbGc53UC9a9uF2X93ZzZMI2rYiIrIAS8Bu7Rf8kbvxQ1g9a7/HrNn4T3NxOl/bqEeFmjjL0AQGlJjdpEf36F6zgGGKFgjOIKE2UV4tSg+7P1SkkI1e58kSt5x3iWHH1HNJxxb7AsazlPZBkpU2hcy3fucMxnhC/0x91+pWGTCAGAzBItuEHLdBz/chujjoqMyBIt6CY0vPiMKB31tvONm3jt3rlw/067x+eegfabs/Dcb4ar1WR8jTnnv6GguTKUVm4UiREABVpws1w4/McOYxQnLYicHO11Nn1UnDwianb9xn/GfX4JSnBuzxHHrzMt7UT7VTq+5/YFGYZXt2m7fO8waawbXb4b+WuJEQBAitSqDfTHuVfg5QgCt1HqdEWNIy3Y8MIzEZT0bJKrD7xmnzbRftl5nfbveHx64avPevwi3NdJU70z3BSDpZYoAVCgBWMrXWGUWr6T1yDY1We9r13Nm/8qlfZzalqgBZd37bJ8LTN3keUzPw/mHtwVe9qvoKn6KV4k3yRKAAChAi14OBK0XCQKgyAnLTiaqRanTGhBGP7qX9nuIkdyX4FB0IwWLAPt19TOljgwxdw/zoE01DvjnD+zvCVOACSBFuRuqMdGZ9OCcPcNg/YzazT6e6AFVx+YbRAsnbdY/1rg6/NJsMaZ9iPV/zFoqIELGnIEiRMAwKfgXRVbWhDegTBWcYWJ8gpxnPYi0MJZf//waD8tXau/i07sn7FOoLxtjhivrrd63fP9BPj799PKug2eCxaDDxIpAIBb3L2suI1Vx8tqpmlBOP2ETfs5tdUVhwvOQUT7TbUvcHrd0/MVv9sRd9pvfUEz9VSuOLzMs1tGBCWhE4WOr1ix4nxKek0EyTsmCXV1pKFVDLTxceBjQ0Nibvdh0Ui8f9xCzdgZMVFeKYaXXiTGqdxcAYa/Vf93K1d0MuJ5gzTSe2REHEacsd0PwE3h4W1FmsA6erfRzfthv7OGVqphOtC9YBlL0uW5CdHy1issccmIBLaAqtpaMdH1Jkv0NQM97IutWDKmiwT7Vuh+Ju6yJHE5NmT4hhtu2ECV8JDhtvqpEAgDgW00+mMASmxIrA1AQ7yw2UJsaUEtn+pv+hBIir+/HfKJFwAoXNK8r+wqRD1LBgLYpyKJtJ8R3VQIgIL3VWxpQSPo6nfiEThccEhLfEFSIQBQC0n0wkp86yneAiRmtZ9TFSWWBjQWbM+ePX3Lly9vJtXs48Zn6rdCgBEBbPOVaMu/HovUaAAoVMEbK7arBfXAq+tkIkD2pg3JzLl5rlOjAaB4pAWMknMQNtT7U/PiqrsKgUAIbCZ708ZAMcTs41RpAMCW1DNUUMEvNWZoq+wkGQFs87UhyQUwy3vqBAAKmXTvLLOKUveiRYBsSxvTQPsZUUy8J6CxQNpvOltwK13fqP1WfxUCARDANl+dAb6P7aep1ACAdhq8tGLbaoovY6mx+hurLlVGQH3hQAuuXLkSGs7V+vvqWiHgEQHQft/w+E1iXk+tBoAaiPupQolpJUWc0bjvOxG0alItAAqbNKRWfQta+ep7ewTImPxYEk73sS+F/dNUCwAUndS3TfRHrRMAGCp4QSCx23x5KWTqBQDASJv3lpcKVu/6RiA1/v52CKTWCKgv9L59+w7FefswfV7VdSwQAO13SyxyIjkTRaEBAMOCF5daJyC5QaUhetIY70xDOdyUoWgEALy44M3lBhT1TlEj8Kukne4TpLaKRgAApLifKhSkItW3PAgU274SRSUAFC3I00nSGktatvnyUj9FJQAADBl3sEZA0YJeWklxvNuflm2+vFRX0QkAgJN27y4vDUC9O43A+oKGOH2jGC6KggY0VmTcTxUy5lf9lo5Aok/3CYJOUWoAAKywWlDRgkFaT0q+Leb9I4pSA0C7VduHpaT3Bi/GNqL9HgkeTTJjKFoNANVFBkH4BRxOZtWpXDMggG2+inqxWFELADSgYvL6YugwqYoirdt8eamkohcA6lQhL80lVe+m5nSfILVS9AIA4BWb91eQBpOib4titZ9TfRWtEVAPjDpVSI9GUVyn6nSfIDWmNIACeupUoSDNKFnfqv0hztWXEgAFLOAFRh6CV9NP5SZ8rn2k7QqMz03FtNovbRWoyqMQUAgoBBQCCgGFgEJAIaAQUAgoBBQCCgGFgEJAIaAQUAgoBBQCCgGFgEJAIaAQUAgoBBQCCgGFgEJAIaAQUAgoBBQCCgGFgEJAIaAQUAgoBBQCCgGFgEJAIaAQUAgoBBQCCgGFgEJAIaAQUAgoBBQCCgGFgEJAIaAQUAgoBBQCCgGFgEJAIaAQUAgoBBQCCgGFgEJAIaAQUAgoBBQCCgGFgEJAIaAQUAgoBBQCCoEkIfD/ARoEoDljDE9iAAAAAElFTkSuQmCC;" vertex="1" parent="1">
          <mxGeometry x="412.25" y="705.5" width="98" height="98" as="geometry" />
        </mxCell>
        <mxCell id="JwZhCow-YJLhXUt54VzM-7" value="Namespace TenantA" style="rounded=0;whiteSpace=wrap;html=1;dashed=1;verticalAlign=top;" vertex="1" parent="1">
          <mxGeometry x="652" y="516" width="228" height="217.25" as="geometry" />
        </mxCell>
        <mxCell id="JwZhCow-YJLhXUt54VzM-9" value="ServiceA" style="aspect=fixed;sketch=0;html=1;dashed=0;whitespace=wrap;verticalLabelPosition=bottom;verticalAlign=top;fillColor=#2875E2;strokeColor=#ffffff;points=[[0.005,0.63,0],[0.1,0.2,0],[0.9,0.2,0],[0.5,0,0],[0.995,0.63,0],[0.72,0.99,0],[0.5,1,0],[0.28,0.99,0]];shape=mxgraph.kubernetes.icon2;prIcon=pod" vertex="1" parent="1">
          <mxGeometry x="741" y="559.25" width="50" height="48" as="geometry" />
        </mxCell>
        <mxCell id="JwZhCow-YJLhXUt54VzM-10" value="ServiceB" style="aspect=fixed;sketch=0;html=1;dashed=0;whitespace=wrap;verticalLabelPosition=bottom;verticalAlign=top;fillColor=#2875E2;strokeColor=#ffffff;points=[[0.005,0.63,0],[0.1,0.2,0],[0.9,0.2,0],[0.5,0,0],[0.995,0.63,0],[0.72,0.99,0],[0.5,1,0],[0.28,0.99,0]];shape=mxgraph.kubernetes.icon2;prIcon=pod" vertex="1" parent="1">
          <mxGeometry x="741" y="646" width="50" height="48" as="geometry" />
        </mxCell>
        <mxCell id="JwZhCow-YJLhXUt54VzM-11" value="Namespace TenantB" style="rounded=0;whiteSpace=wrap;html=1;dashed=1;verticalAlign=top;" vertex="1" parent="1">
          <mxGeometry x="909" y="516" width="224" height="217.25" as="geometry" />
        </mxCell>
        <mxCell id="JwZhCow-YJLhXUt54VzM-13" value="ServiceA" style="aspect=fixed;sketch=0;html=1;dashed=0;whitespace=wrap;verticalLabelPosition=bottom;verticalAlign=top;fillColor=#2875E2;strokeColor=#ffffff;points=[[0.005,0.63,0],[0.1,0.2,0],[0.9,0.2,0],[0.5,0,0],[0.995,0.63,0],[0.72,0.99,0],[0.5,1,0],[0.28,0.99,0]];shape=mxgraph.kubernetes.icon2;prIcon=pod" vertex="1" parent="1">
          <mxGeometry x="1002.5" y="559.25" width="50" height="48" as="geometry" />
        </mxCell>
        <mxCell id="JwZhCow-YJLhXUt54VzM-14" value="ServiceB" style="aspect=fixed;sketch=0;html=1;dashed=0;whitespace=wrap;verticalLabelPosition=bottom;verticalAlign=top;fillColor=#2875E2;strokeColor=#ffffff;points=[[0.005,0.63,0],[0.1,0.2,0],[0.9,0.2,0],[0.5,0,0],[0.995,0.63,0],[0.72,0.99,0],[0.5,1,0],[0.28,0.99,0]];shape=mxgraph.kubernetes.icon2;prIcon=pod" vertex="1" parent="1">
          <mxGeometry x="1002.5" y="646" width="50" height="48" as="geometry" />
        </mxCell>
        <mxCell id="JwZhCow-YJLhXUt54VzM-15" value="Elastic Cache&lt;div&gt;TenantB&lt;/div&gt;" style="outlineConnect=0;dashed=0;verticalLabelPosition=bottom;verticalAlign=top;align=center;html=1;shape=mxgraph.aws3.elasticache;fillColor=#2E73B8;gradientColor=none;" vertex="1" parent="1">
          <mxGeometry x="937" y="822.25" width="55.25" height="69" as="geometry" />
        </mxCell>
        <mxCell id="JwZhCow-YJLhXUt54VzM-16" style="edgeStyle=orthogonalEdgeStyle;rounded=0;orthogonalLoop=1;jettySize=auto;html=1;exitX=0.25;exitY=1;exitDx=0;exitDy=0;" edge="1" parent="1" source="JwZhCow-YJLhXUt54VzM-11" target="JwZhCow-YJLhXUt54VzM-15">
          <mxGeometry relative="1" as="geometry">
            <mxPoint x="845" y="809.25" as="sourcePoint" />
            <mxPoint x="845" y="896.25" as="targetPoint" />
          </mxGeometry>
        </mxCell>
        <mxCell id="JwZhCow-YJLhXUt54VzM-22" style="edgeStyle=orthogonalEdgeStyle;rounded=0;orthogonalLoop=1;jettySize=auto;html=1;entryX=0.5;entryY=0;entryDx=0;entryDy=0;" edge="1" parent="1" source="JwZhCow-YJLhXUt54VzM-18" target="JwZhCow-YJLhXUt54VzM-20">
          <mxGeometry relative="1" as="geometry" />
        </mxCell>
        <mxCell id="JwZhCow-YJLhXUt54VzM-18" value="Aurora Postgres&lt;div&gt;TenantB&lt;/div&gt;" style="sketch=0;points=[[0,0,0],[0.25,0,0],[0.5,0,0],[0.75,0,0],[1,0,0],[0,1,0],[0.25,1,0],[0.5,1,0],[0.75,1,0],[1,1,0],[0,0.25,0],[0,0.5,0],[0,0.75,0],[1,0.25,0],[1,0.5,0],[1,0.75,0]];outlineConnect=0;fontColor=#232F3E;fillColor=#C925D1;strokeColor=#ffffff;dashed=0;verticalLabelPosition=bottom;verticalAlign=top;align=center;html=1;fontSize=12;fontStyle=0;aspect=fixed;shape=mxgraph.aws4.resourceIcon;resIcon=mxgraph.aws4.aurora;" vertex="1" parent="1">
          <mxGeometry x="990.5" y="932.25" width="61" height="61" as="geometry" />
        </mxCell>
        <mxCell id="JwZhCow-YJLhXUt54VzM-19" value="OpenSearch&lt;div&gt;TenantB&lt;/div&gt;" style="points=[];aspect=fixed;html=1;align=center;shadow=0;dashed=0;fillColor=#FF6A00;strokeColor=none;shape=mxgraph.alibaba_cloud.opensearch;verticalAlign=top;labelPosition=center;verticalLabelPosition=bottom;" vertex="1" parent="1">
          <mxGeometry x="1048" y="817.25" width="60.3" height="60" as="geometry" />
        </mxCell>
        <mxCell id="JwZhCow-YJLhXUt54VzM-23" style="edgeStyle=orthogonalEdgeStyle;rounded=0;orthogonalLoop=1;jettySize=auto;html=1;exitX=1;exitY=0.5;exitDx=0;exitDy=0;" edge="1" parent="1" source="JwZhCow-YJLhXUt54VzM-20" target="JwZhCow-YJLhXUt54VzM-19">
          <mxGeometry relative="1" as="geometry" />
        </mxCell>
        <mxCell id="JwZhCow-YJLhXUt54VzM-20" value="PGSync" style="shape=image;verticalLabelPosition=bottom;labelBackgroundColor=default;verticalAlign=top;aspect=fixed;imageAspect=0;image=https://cdn-icons-png.flaticon.com/512/4233/4233601.png;" vertex="1" parent="1">
          <mxGeometry x="986.5" y="1053.25" width="69" height="69" as="geometry" />
        </mxCell>
        <mxCell id="JwZhCow-YJLhXUt54VzM-21" style="edgeStyle=orthogonalEdgeStyle;rounded=0;orthogonalLoop=1;jettySize=auto;html=1;exitX=0.5;exitY=1;exitDx=0;exitDy=0;entryX=0.5;entryY=0;entryDx=0;entryDy=0;entryPerimeter=0;" edge="1" parent="1" source="JwZhCow-YJLhXUt54VzM-11" target="JwZhCow-YJLhXUt54VzM-18">
          <mxGeometry relative="1" as="geometry">
            <mxPoint x="1063" y="814.25" as="sourcePoint" />
            <mxPoint x="1063" y="903.25" as="targetPoint" />
          </mxGeometry>
        </mxCell>
        <mxCell id="JwZhCow-YJLhXUt54VzM-25" style="edgeStyle=orthogonalEdgeStyle;rounded=0;orthogonalLoop=1;jettySize=auto;html=1;exitX=0.75;exitY=1;exitDx=0;exitDy=0;entryX=0.485;entryY=0.059;entryDx=0;entryDy=0;entryPerimeter=0;" edge="1" parent="1" source="JwZhCow-YJLhXUt54VzM-11" target="JwZhCow-YJLhXUt54VzM-19">
          <mxGeometry relative="1" as="geometry">
            <mxPoint x="1087" y="790.25" as="sourcePoint" />
            <mxPoint x="1087" y="879.25" as="targetPoint" />
          </mxGeometry>
        </mxCell>
      </root>
    </mxGraphModel>
  </diagram>
  <diagram id="BGZHWTWwNWjGH87uwMEw" name="deployment">
    <mxGraphModel grid="0" page="0" gridSize="10" guides="1" tooltips="1" connect="1" arrows="1" fold="1" pageScale="1" pageWidth="850" pageHeight="1100" math="0" shadow="0">
      <root>
        <mxCell id="0" />
        <mxCell id="1" parent="0" />
        <mxCell id="0XEMuGiK4ZWqo2sjq5a6-28" style="edgeStyle=orthogonalEdgeStyle;rounded=0;orthogonalLoop=1;jettySize=auto;html=1;dashed=1;exitX=0;exitY=0;exitDx=217;exitDy=296;exitPerimeter=0;" parent="1" source="0XEMuGiK4ZWqo2sjq5a6-1" target="0XEMuGiK4ZWqo2sjq5a6-21" edge="1">
          <mxGeometry relative="1" as="geometry" />
        </mxCell>
        <mxCell id="0XEMuGiK4ZWqo2sjq5a6-1" value="Microservices" style="shape=cube;whiteSpace=wrap;html=1;boundedLbl=1;backgroundOutline=1;darkOpacity=0.05;darkOpacity2=0.1;verticalAlign=top;" parent="1" vertex="1">
          <mxGeometry x="53" y="313" width="414" height="296" as="geometry" />
        </mxCell>
        <mxCell id="0XEMuGiK4ZWqo2sjq5a6-2" value="product.jar" style="html=1;outlineConnect=0;whiteSpace=wrap;fillColor=#AFFFAF;shape=mxgraph.archimate3.application;appType=equipment;archiType=square;" parent="1" vertex="1">
          <mxGeometry x="99" y="379.5" width="150" height="75" as="geometry" />
        </mxCell>
        <mxCell id="0XEMuGiK4ZWqo2sjq5a6-3" value="Deployment Spec" style="swimlane;fontStyle=0;childLayout=stackLayout;horizontal=1;startSize=30;horizontalStack=0;resizeParent=1;resizeParentMax=0;resizeLast=0;collapsible=1;marginBottom=0;whiteSpace=wrap;html=1;" parent="1" vertex="1">
          <mxGeometry x="298" y="372" width="140" height="90" as="geometry" />
        </mxCell>
        <mxCell id="0XEMuGiK4ZWqo2sjq5a6-4" value="Dockerfile" style="text;strokeColor=none;fillColor=none;align=left;verticalAlign=middle;spacingLeft=4;spacingRight=4;overflow=hidden;points=[[0,0.5],[1,0.5]];portConstraint=eastwest;rotatable=0;whiteSpace=wrap;html=1;" parent="0XEMuGiK4ZWqo2sjq5a6-3" vertex="1">
          <mxGeometry y="30" width="140" height="30" as="geometry" />
        </mxCell>
        <mxCell id="0XEMuGiK4ZWqo2sjq5a6-5" value="deployment.yml" style="text;strokeColor=none;fillColor=none;align=left;verticalAlign=middle;spacingLeft=4;spacingRight=4;overflow=hidden;points=[[0,0.5],[1,0.5]];portConstraint=eastwest;rotatable=0;whiteSpace=wrap;html=1;" parent="0XEMuGiK4ZWqo2sjq5a6-3" vertex="1">
          <mxGeometry y="60" width="140" height="30" as="geometry" />
        </mxCell>
        <mxCell id="0XEMuGiK4ZWqo2sjq5a6-8" value="user.jar" style="html=1;outlineConnect=0;whiteSpace=wrap;fillColor=#AFFFAF;shape=mxgraph.archimate3.application;appType=equipment;archiType=square;" parent="1" vertex="1">
          <mxGeometry x="99" y="498.5" width="150" height="75" as="geometry" />
        </mxCell>
        <mxCell id="0XEMuGiK4ZWqo2sjq5a6-12" value="Docker Registry&lt;br&gt;ECR" style="shape=cube;whiteSpace=wrap;html=1;boundedLbl=1;backgroundOutline=1;darkOpacity=0.05;darkOpacity2=0.1;" parent="1" vertex="1">
          <mxGeometry x="539" y="401" width="192" height="120" as="geometry" />
        </mxCell>
        <mxCell id="0XEMuGiK4ZWqo2sjq5a6-13" style="edgeStyle=orthogonalEdgeStyle;rounded=0;orthogonalLoop=1;jettySize=auto;html=1;endArrow=none;startFill=0;" parent="1" source="0XEMuGiK4ZWqo2sjq5a6-1" target="0XEMuGiK4ZWqo2sjq5a6-12" edge="1">
          <mxGeometry relative="1" as="geometry" />
        </mxCell>
        <mxCell id="0XEMuGiK4ZWqo2sjq5a6-31" style="edgeStyle=orthogonalEdgeStyle;rounded=0;orthogonalLoop=1;jettySize=auto;html=1;" parent="1" source="0XEMuGiK4ZWqo2sjq5a6-15" target="0XEMuGiK4ZWqo2sjq5a6-30" edge="1">
          <mxGeometry relative="1" as="geometry" />
        </mxCell>
        <mxCell id="0XEMuGiK4ZWqo2sjq5a6-15" value="Web Application" style="shape=cube;whiteSpace=wrap;html=1;boundedLbl=1;backgroundOutline=1;darkOpacity=0.05;darkOpacity2=0.1;verticalAlign=top;" parent="1" vertex="1">
          <mxGeometry x="814" y="373.5" width="414" height="175" as="geometry" />
        </mxCell>
        <mxCell id="0XEMuGiK4ZWqo2sjq5a6-29" style="edgeStyle=orthogonalEdgeStyle;rounded=0;orthogonalLoop=1;jettySize=auto;html=1;endArrow=none;startFill=0;" parent="1" source="0XEMuGiK4ZWqo2sjq5a6-16" target="0XEMuGiK4ZWqo2sjq5a6-17" edge="1">
          <mxGeometry relative="1" as="geometry" />
        </mxCell>
        <mxCell id="0XEMuGiK4ZWqo2sjq5a6-16" value="UI" style="html=1;outlineConnect=0;whiteSpace=wrap;fillColor=#AFFFAF;shape=mxgraph.archimate3.application;appType=equipment;archiType=square;" parent="1" vertex="1">
          <mxGeometry x="860" y="440" width="150" height="75" as="geometry" />
        </mxCell>
        <mxCell id="0XEMuGiK4ZWqo2sjq5a6-17" value="Deployment Spec" style="swimlane;fontStyle=0;childLayout=stackLayout;horizontal=1;startSize=30;horizontalStack=0;resizeParent=1;resizeParentMax=0;resizeLast=0;collapsible=1;marginBottom=0;whiteSpace=wrap;html=1;" parent="1" vertex="1">
          <mxGeometry x="1059" y="432.5" width="140" height="90" as="geometry" />
        </mxCell>
        <mxCell id="0XEMuGiK4ZWqo2sjq5a6-18" value="Dockerfile" style="text;strokeColor=none;fillColor=none;align=left;verticalAlign=middle;spacingLeft=4;spacingRight=4;overflow=hidden;points=[[0,0.5],[1,0.5]];portConstraint=eastwest;rotatable=0;whiteSpace=wrap;html=1;" parent="0XEMuGiK4ZWqo2sjq5a6-17" vertex="1">
          <mxGeometry y="30" width="140" height="30" as="geometry" />
        </mxCell>
        <mxCell id="0XEMuGiK4ZWqo2sjq5a6-19" value="deployment.yml" style="text;strokeColor=none;fillColor=none;align=left;verticalAlign=middle;spacingLeft=4;spacingRight=4;overflow=hidden;points=[[0,0.5],[1,0.5]];portConstraint=eastwest;rotatable=0;whiteSpace=wrap;html=1;" parent="0XEMuGiK4ZWqo2sjq5a6-17" vertex="1">
          <mxGeometry y="60" width="140" height="30" as="geometry" />
        </mxCell>
        <mxCell id="0XEMuGiK4ZWqo2sjq5a6-20" style="edgeStyle=orthogonalEdgeStyle;rounded=0;orthogonalLoop=1;jettySize=auto;html=1;endArrow=none;startFill=0;" parent="1" source="0XEMuGiK4ZWqo2sjq5a6-12" target="0XEMuGiK4ZWqo2sjq5a6-15" edge="1">
          <mxGeometry relative="1" as="geometry">
            <mxPoint x="439" y="355" as="sourcePoint" />
            <mxPoint x="583" y="471" as="targetPoint" />
          </mxGeometry>
        </mxCell>
        <mxCell id="0XEMuGiK4ZWqo2sjq5a6-21" value="SQL Server" style="shape=cube;whiteSpace=wrap;html=1;boundedLbl=1;backgroundOutline=1;darkOpacity=0.05;darkOpacity2=0.1;verticalAlign=top;" parent="1" vertex="1">
          <mxGeometry x="146" y="713" width="249" height="175" as="geometry" />
        </mxCell>
        <mxCell id="0XEMuGiK4ZWqo2sjq5a6-22" value="Schema.sql" style="html=1;outlineConnect=0;whiteSpace=wrap;fillColor=#AFFFAF;shape=mxgraph.archimate3.application;appType=equipment;archiType=square;" parent="1" vertex="1">
          <mxGeometry x="201" y="784" width="150" height="75" as="geometry" />
        </mxCell>
        <mxCell id="0XEMuGiK4ZWqo2sjq5a6-23" value="Deployment Spec" style="swimlane;fontStyle=0;childLayout=stackLayout;horizontal=1;startSize=30;horizontalStack=0;resizeParent=1;resizeParentMax=0;resizeLast=0;collapsible=1;marginBottom=0;whiteSpace=wrap;html=1;" parent="1" vertex="1">
          <mxGeometry x="301" y="491" width="140" height="90" as="geometry" />
        </mxCell>
        <mxCell id="0XEMuGiK4ZWqo2sjq5a6-24" value="Dockerfile" style="text;strokeColor=none;fillColor=none;align=left;verticalAlign=middle;spacingLeft=4;spacingRight=4;overflow=hidden;points=[[0,0.5],[1,0.5]];portConstraint=eastwest;rotatable=0;whiteSpace=wrap;html=1;" parent="0XEMuGiK4ZWqo2sjq5a6-23" vertex="1">
          <mxGeometry y="30" width="140" height="30" as="geometry" />
        </mxCell>
        <mxCell id="0XEMuGiK4ZWqo2sjq5a6-25" value="deployment.yml" style="text;strokeColor=none;fillColor=none;align=left;verticalAlign=middle;spacingLeft=4;spacingRight=4;overflow=hidden;points=[[0,0.5],[1,0.5]];portConstraint=eastwest;rotatable=0;whiteSpace=wrap;html=1;" parent="0XEMuGiK4ZWqo2sjq5a6-23" vertex="1">
          <mxGeometry y="60" width="140" height="30" as="geometry" />
        </mxCell>
        <mxCell id="0XEMuGiK4ZWqo2sjq5a6-26" style="edgeStyle=orthogonalEdgeStyle;rounded=0;orthogonalLoop=1;jettySize=auto;html=1;endArrow=none;startFill=0;" parent="1" source="0XEMuGiK4ZWqo2sjq5a6-2" target="0XEMuGiK4ZWqo2sjq5a6-3" edge="1">
          <mxGeometry relative="1" as="geometry">
            <mxPoint x="477" y="495" as="sourcePoint" />
            <mxPoint x="621" y="527" as="targetPoint" />
          </mxGeometry>
        </mxCell>
        <mxCell id="0XEMuGiK4ZWqo2sjq5a6-27" style="edgeStyle=orthogonalEdgeStyle;rounded=0;orthogonalLoop=1;jettySize=auto;html=1;endArrow=none;startFill=0;" parent="1" source="0XEMuGiK4ZWqo2sjq5a6-8" target="0XEMuGiK4ZWqo2sjq5a6-23" edge="1">
          <mxGeometry relative="1" as="geometry">
            <mxPoint x="259" y="427" as="sourcePoint" />
            <mxPoint x="308" y="427" as="targetPoint" />
          </mxGeometry>
        </mxCell>
        <mxCell id="0XEMuGiK4ZWqo2sjq5a6-30" value="S3 Buket" style="shape=cube;whiteSpace=wrap;html=1;boundedLbl=1;backgroundOutline=1;darkOpacity=0.05;darkOpacity2=0.1;" parent="1" vertex="1">
          <mxGeometry x="925" y="646" width="192" height="120" as="geometry" />
        </mxCell>
      </root>
    </mxGraphModel>
  </diagram>
  <diagram id="TTeiqUfELaWEKGD71PHr" name="uc.search.product">
    <mxGraphModel dx="1415" dy="1407" grid="0" gridSize="10" guides="1" tooltips="1" connect="1" arrows="1" fold="1" page="0" pageScale="1" pageWidth="850" pageHeight="1100" math="0" shadow="0">
      <root>
        <mxCell id="0" />
        <mxCell id="1" parent="0" />
        <mxCell id="9o5SMapUrAs0YinHVHyk-2" value="Searching products" style="rounded=0;whiteSpace=wrap;html=1;verticalAlign=top;" vertex="1" parent="1">
          <mxGeometry x="41" y="-187" width="265" height="616" as="geometry" />
        </mxCell>
        <mxCell id="9o5SMapUrAs0YinHVHyk-4" style="edgeStyle=orthogonalEdgeStyle;rounded=0;orthogonalLoop=1;jettySize=auto;html=1;entryX=0;entryY=0.5;entryDx=0;entryDy=0;curved=1;" edge="1" parent="1" source="9o5SMapUrAs0YinHVHyk-1" target="9o5SMapUrAs0YinHVHyk-3">
          <mxGeometry relative="1" as="geometry" />
        </mxCell>
        <mxCell id="9o5SMapUrAs0YinHVHyk-1" value="User" style="shape=umlActor;verticalLabelPosition=bottom;verticalAlign=top;html=1;outlineConnect=0;" vertex="1" parent="1">
          <mxGeometry x="-144" y="67" width="58" height="110" as="geometry" />
        </mxCell>
        <mxCell id="9o5SMapUrAs0YinHVHyk-3" value="Login" style="ellipse;whiteSpace=wrap;html=1;" vertex="1" parent="1">
          <mxGeometry x="113.5" y="-137" width="120" height="80" as="geometry" />
        </mxCell>
        <mxCell id="9o5SMapUrAs0YinHVHyk-5" value="Access products search page" style="ellipse;whiteSpace=wrap;html=1;" vertex="1" parent="1">
          <mxGeometry x="113.5" y="-32" width="120" height="80" as="geometry" />
        </mxCell>
        <mxCell id="9o5SMapUrAs0YinHVHyk-6" value="See all products available based on history" style="ellipse;whiteSpace=wrap;html=1;" vertex="1" parent="1">
          <mxGeometry x="113.5" y="82" width="120" height="80" as="geometry" />
        </mxCell>
        <mxCell id="9o5SMapUrAs0YinHVHyk-7" value="Type a text into search field" style="ellipse;whiteSpace=wrap;html=1;" vertex="1" parent="1">
          <mxGeometry x="113.5" y="203" width="120" height="80" as="geometry" />
        </mxCell>
        <mxCell id="9o5SMapUrAs0YinHVHyk-8" value="See all products with similar names or description" style="ellipse;whiteSpace=wrap;html=1;" vertex="1" parent="1">
          <mxGeometry x="113.5" y="320" width="120" height="80" as="geometry" />
        </mxCell>
        <mxCell id="9o5SMapUrAs0YinHVHyk-9" style="edgeStyle=orthogonalEdgeStyle;rounded=0;orthogonalLoop=1;jettySize=auto;html=1;entryX=0;entryY=0.5;entryDx=0;entryDy=0;curved=1;" edge="1" parent="1" source="9o5SMapUrAs0YinHVHyk-1" target="9o5SMapUrAs0YinHVHyk-5">
          <mxGeometry relative="1" as="geometry">
            <mxPoint x="-116" y="148" as="sourcePoint" />
            <mxPoint x="124" y="-87" as="targetPoint" />
          </mxGeometry>
        </mxCell>
        <mxCell id="9o5SMapUrAs0YinHVHyk-10" style="edgeStyle=orthogonalEdgeStyle;rounded=0;orthogonalLoop=1;jettySize=auto;html=1;entryX=0;entryY=0.5;entryDx=0;entryDy=0;curved=1;" edge="1" parent="1" source="9o5SMapUrAs0YinHVHyk-1" target="9o5SMapUrAs0YinHVHyk-6">
          <mxGeometry relative="1" as="geometry">
            <mxPoint x="-116" y="148" as="sourcePoint" />
            <mxPoint x="134" y="-77" as="targetPoint" />
          </mxGeometry>
        </mxCell>
        <mxCell id="9o5SMapUrAs0YinHVHyk-11" style="edgeStyle=orthogonalEdgeStyle;rounded=0;orthogonalLoop=1;jettySize=auto;html=1;entryX=0;entryY=0.5;entryDx=0;entryDy=0;curved=1;" edge="1" parent="1" source="9o5SMapUrAs0YinHVHyk-1" target="9o5SMapUrAs0YinHVHyk-7">
          <mxGeometry relative="1" as="geometry">
            <mxPoint x="-106" y="158" as="sourcePoint" />
            <mxPoint x="144" y="-67" as="targetPoint" />
          </mxGeometry>
        </mxCell>
        <mxCell id="9o5SMapUrAs0YinHVHyk-12" style="edgeStyle=orthogonalEdgeStyle;rounded=0;orthogonalLoop=1;jettySize=auto;html=1;entryX=0;entryY=0.5;entryDx=0;entryDy=0;curved=1;" edge="1" parent="1" source="9o5SMapUrAs0YinHVHyk-1" target="9o5SMapUrAs0YinHVHyk-8">
          <mxGeometry relative="1" as="geometry">
            <mxPoint x="-96" y="168" as="sourcePoint" />
            <mxPoint x="154" y="-57" as="targetPoint" />
          </mxGeometry>
        </mxCell>
      </root>
    </mxGraphModel>
  </diagram>
  <diagram name="uc.post.product" id="K6IPCTsHUYz8npWNONGt">
    <mxGraphModel dx="1415" dy="1407" grid="0" gridSize="10" guides="1" tooltips="1" connect="1" arrows="1" fold="1" page="0" pageScale="1" pageWidth="850" pageHeight="1100" math="0" shadow="0">
      <root>
        <mxCell id="Kw_1Bd73v6K3SihxDMfR-0" />
        <mxCell id="Kw_1Bd73v6K3SihxDMfR-1" parent="Kw_1Bd73v6K3SihxDMfR-0" />
        <mxCell id="Kw_1Bd73v6K3SihxDMfR-2" value="Posting products" style="rounded=0;whiteSpace=wrap;html=1;verticalAlign=top;" vertex="1" parent="Kw_1Bd73v6K3SihxDMfR-1">
          <mxGeometry x="41" y="-187" width="265" height="728" as="geometry" />
        </mxCell>
        <mxCell id="Kw_1Bd73v6K3SihxDMfR-3" style="edgeStyle=orthogonalEdgeStyle;rounded=0;orthogonalLoop=1;jettySize=auto;html=1;entryX=0;entryY=0.5;entryDx=0;entryDy=0;curved=1;" edge="1" parent="Kw_1Bd73v6K3SihxDMfR-1" source="Kw_1Bd73v6K3SihxDMfR-4" target="Kw_1Bd73v6K3SihxDMfR-5">
          <mxGeometry relative="1" as="geometry" />
        </mxCell>
        <mxCell id="Kw_1Bd73v6K3SihxDMfR-4" value="User" style="shape=umlActor;verticalLabelPosition=bottom;verticalAlign=top;html=1;outlineConnect=0;" vertex="1" parent="Kw_1Bd73v6K3SihxDMfR-1">
          <mxGeometry x="-144" y="67" width="58" height="110" as="geometry" />
        </mxCell>
        <mxCell id="Kw_1Bd73v6K3SihxDMfR-5" value="Login" style="ellipse;whiteSpace=wrap;html=1;" vertex="1" parent="Kw_1Bd73v6K3SihxDMfR-1">
          <mxGeometry x="113.5" y="-137" width="120" height="80" as="geometry" />
        </mxCell>
        <mxCell id="Kw_1Bd73v6K3SihxDMfR-6" value="Access product management page" style="ellipse;whiteSpace=wrap;html=1;" vertex="1" parent="Kw_1Bd73v6K3SihxDMfR-1">
          <mxGeometry x="113.5" y="-32" width="120" height="80" as="geometry" />
        </mxCell>
        <mxCell id="Kw_1Bd73v6K3SihxDMfR-7" value="See all products saved previously" style="ellipse;whiteSpace=wrap;html=1;" vertex="1" parent="Kw_1Bd73v6K3SihxDMfR-1">
          <mxGeometry x="113.5" y="82" width="120" height="80" as="geometry" />
        </mxCell>
        <mxCell id="Kw_1Bd73v6K3SihxDMfR-8" value="Click to add new product" style="ellipse;whiteSpace=wrap;html=1;" vertex="1" parent="Kw_1Bd73v6K3SihxDMfR-1">
          <mxGeometry x="113.5" y="203" width="120" height="80" as="geometry" />
        </mxCell>
        <mxCell id="Kw_1Bd73v6K3SihxDMfR-9" value="Fill product details and add pictures" style="ellipse;whiteSpace=wrap;html=1;" vertex="1" parent="Kw_1Bd73v6K3SihxDMfR-1">
          <mxGeometry x="113.5" y="320" width="120" height="80" as="geometry" />
        </mxCell>
        <mxCell id="Kw_1Bd73v6K3SihxDMfR-10" style="edgeStyle=orthogonalEdgeStyle;rounded=0;orthogonalLoop=1;jettySize=auto;html=1;entryX=0;entryY=0.5;entryDx=0;entryDy=0;curved=1;" edge="1" parent="Kw_1Bd73v6K3SihxDMfR-1" source="Kw_1Bd73v6K3SihxDMfR-4" target="Kw_1Bd73v6K3SihxDMfR-6">
          <mxGeometry relative="1" as="geometry">
            <mxPoint x="-116" y="148" as="sourcePoint" />
            <mxPoint x="124" y="-87" as="targetPoint" />
          </mxGeometry>
        </mxCell>
        <mxCell id="Kw_1Bd73v6K3SihxDMfR-11" style="edgeStyle=orthogonalEdgeStyle;rounded=0;orthogonalLoop=1;jettySize=auto;html=1;entryX=0;entryY=0.5;entryDx=0;entryDy=0;curved=1;" edge="1" parent="Kw_1Bd73v6K3SihxDMfR-1" source="Kw_1Bd73v6K3SihxDMfR-4" target="Kw_1Bd73v6K3SihxDMfR-7">
          <mxGeometry relative="1" as="geometry">
            <mxPoint x="-116" y="148" as="sourcePoint" />
            <mxPoint x="134" y="-77" as="targetPoint" />
          </mxGeometry>
        </mxCell>
        <mxCell id="Kw_1Bd73v6K3SihxDMfR-12" style="edgeStyle=orthogonalEdgeStyle;rounded=0;orthogonalLoop=1;jettySize=auto;html=1;entryX=0;entryY=0.5;entryDx=0;entryDy=0;curved=1;" edge="1" parent="Kw_1Bd73v6K3SihxDMfR-1" source="Kw_1Bd73v6K3SihxDMfR-4" target="Kw_1Bd73v6K3SihxDMfR-8">
          <mxGeometry relative="1" as="geometry">
            <mxPoint x="-106" y="158" as="sourcePoint" />
            <mxPoint x="144" y="-67" as="targetPoint" />
          </mxGeometry>
        </mxCell>
        <mxCell id="Kw_1Bd73v6K3SihxDMfR-13" style="edgeStyle=orthogonalEdgeStyle;rounded=0;orthogonalLoop=1;jettySize=auto;html=1;entryX=0;entryY=0.5;entryDx=0;entryDy=0;curved=1;" edge="1" parent="Kw_1Bd73v6K3SihxDMfR-1" source="Kw_1Bd73v6K3SihxDMfR-4" target="Kw_1Bd73v6K3SihxDMfR-9">
          <mxGeometry relative="1" as="geometry">
            <mxPoint x="-96" y="168" as="sourcePoint" />
            <mxPoint x="154" y="-57" as="targetPoint" />
          </mxGeometry>
        </mxCell>
        <mxCell id="0XgS5xXAaWVhfa4Fujdu-0" value="Save the product" style="ellipse;whiteSpace=wrap;html=1;" vertex="1" parent="Kw_1Bd73v6K3SihxDMfR-1">
          <mxGeometry x="113.5" y="429" width="120" height="80" as="geometry" />
        </mxCell>
        <mxCell id="0XgS5xXAaWVhfa4Fujdu-1" style="edgeStyle=orthogonalEdgeStyle;rounded=0;orthogonalLoop=1;jettySize=auto;html=1;entryX=0;entryY=0.5;entryDx=0;entryDy=0;curved=1;" edge="1" parent="Kw_1Bd73v6K3SihxDMfR-1" source="Kw_1Bd73v6K3SihxDMfR-4" target="0XgS5xXAaWVhfa4Fujdu-0">
          <mxGeometry relative="1" as="geometry">
            <mxPoint x="-76" y="132" as="sourcePoint" />
            <mxPoint x="124" y="370" as="targetPoint" />
          </mxGeometry>
        </mxCell>
      </root>
    </mxGraphModel>
  </diagram>
  <diagram name="uc.view.product" id="5NONjeqhp2zBOwEMkLan">
    <mxGraphModel dx="1415" dy="1007" grid="0" gridSize="10" guides="1" tooltips="1" connect="1" arrows="1" fold="1" page="0" pageScale="1" pageWidth="850" pageHeight="1100" math="0" shadow="0">
      <root>
        <mxCell id="38S99PAp9FkhOumt0H_u-0" />
        <mxCell id="38S99PAp9FkhOumt0H_u-1" parent="38S99PAp9FkhOumt0H_u-0" />
        <mxCell id="H_xGiDRHiHV_fbQGNWIw-0" value="View product details" style="rounded=0;whiteSpace=wrap;html=1;verticalAlign=top;" vertex="1" parent="38S99PAp9FkhOumt0H_u-1">
          <mxGeometry x="134" y="387" width="265" height="878" as="geometry" />
        </mxCell>
        <mxCell id="H_xGiDRHiHV_fbQGNWIw-1" style="edgeStyle=orthogonalEdgeStyle;rounded=0;orthogonalLoop=1;jettySize=auto;html=1;entryX=0;entryY=0.5;entryDx=0;entryDy=0;curved=1;" edge="1" parent="38S99PAp9FkhOumt0H_u-1" source="H_xGiDRHiHV_fbQGNWIw-2" target="H_xGiDRHiHV_fbQGNWIw-3">
          <mxGeometry relative="1" as="geometry" />
        </mxCell>
        <mxCell id="H_xGiDRHiHV_fbQGNWIw-2" value="User" style="shape=umlActor;verticalLabelPosition=bottom;verticalAlign=top;html=1;outlineConnect=0;" vertex="1" parent="38S99PAp9FkhOumt0H_u-1">
          <mxGeometry x="-51" y="641" width="58" height="110" as="geometry" />
        </mxCell>
        <mxCell id="H_xGiDRHiHV_fbQGNWIw-3" value="Login" style="ellipse;whiteSpace=wrap;html=1;" vertex="1" parent="38S99PAp9FkhOumt0H_u-1">
          <mxGeometry x="206.5" y="437" width="120" height="80" as="geometry" />
        </mxCell>
        <mxCell id="H_xGiDRHiHV_fbQGNWIw-4" value="Access products search page" style="ellipse;whiteSpace=wrap;html=1;" vertex="1" parent="38S99PAp9FkhOumt0H_u-1">
          <mxGeometry x="206.5" y="542" width="120" height="80" as="geometry" />
        </mxCell>
        <mxCell id="H_xGiDRHiHV_fbQGNWIw-5" value="See all products available based on history" style="ellipse;whiteSpace=wrap;html=1;" vertex="1" parent="38S99PAp9FkhOumt0H_u-1">
          <mxGeometry x="206.5" y="656" width="120" height="80" as="geometry" />
        </mxCell>
        <mxCell id="H_xGiDRHiHV_fbQGNWIw-6" value="Type a text into search field" style="ellipse;whiteSpace=wrap;html=1;" vertex="1" parent="38S99PAp9FkhOumt0H_u-1">
          <mxGeometry x="206.5" y="777" width="120" height="80" as="geometry" />
        </mxCell>
        <mxCell id="H_xGiDRHiHV_fbQGNWIw-7" value="See all products with similar names or description" style="ellipse;whiteSpace=wrap;html=1;" vertex="1" parent="38S99PAp9FkhOumt0H_u-1">
          <mxGeometry x="206.5" y="894" width="120" height="80" as="geometry" />
        </mxCell>
        <mxCell id="H_xGiDRHiHV_fbQGNWIw-8" style="edgeStyle=orthogonalEdgeStyle;rounded=0;orthogonalLoop=1;jettySize=auto;html=1;entryX=0;entryY=0.5;entryDx=0;entryDy=0;curved=1;" edge="1" parent="38S99PAp9FkhOumt0H_u-1" source="H_xGiDRHiHV_fbQGNWIw-2" target="H_xGiDRHiHV_fbQGNWIw-4">
          <mxGeometry relative="1" as="geometry">
            <mxPoint x="-23" y="722" as="sourcePoint" />
            <mxPoint x="217" y="487" as="targetPoint" />
          </mxGeometry>
        </mxCell>
        <mxCell id="H_xGiDRHiHV_fbQGNWIw-9" style="edgeStyle=orthogonalEdgeStyle;rounded=0;orthogonalLoop=1;jettySize=auto;html=1;entryX=0;entryY=0.5;entryDx=0;entryDy=0;curved=1;" edge="1" parent="38S99PAp9FkhOumt0H_u-1" source="H_xGiDRHiHV_fbQGNWIw-2" target="H_xGiDRHiHV_fbQGNWIw-5">
          <mxGeometry relative="1" as="geometry">
            <mxPoint x="-23" y="722" as="sourcePoint" />
            <mxPoint x="227" y="497" as="targetPoint" />
          </mxGeometry>
        </mxCell>
        <mxCell id="H_xGiDRHiHV_fbQGNWIw-10" style="edgeStyle=orthogonalEdgeStyle;rounded=0;orthogonalLoop=1;jettySize=auto;html=1;entryX=0;entryY=0.5;entryDx=0;entryDy=0;curved=1;" edge="1" parent="38S99PAp9FkhOumt0H_u-1" source="H_xGiDRHiHV_fbQGNWIw-2" target="H_xGiDRHiHV_fbQGNWIw-6">
          <mxGeometry relative="1" as="geometry">
            <mxPoint x="-13" y="732" as="sourcePoint" />
            <mxPoint x="237" y="507" as="targetPoint" />
          </mxGeometry>
        </mxCell>
        <mxCell id="H_xGiDRHiHV_fbQGNWIw-11" style="edgeStyle=orthogonalEdgeStyle;rounded=0;orthogonalLoop=1;jettySize=auto;html=1;entryX=0;entryY=0.5;entryDx=0;entryDy=0;curved=1;" edge="1" parent="38S99PAp9FkhOumt0H_u-1" source="H_xGiDRHiHV_fbQGNWIw-2" target="H_xGiDRHiHV_fbQGNWIw-7">
          <mxGeometry relative="1" as="geometry">
            <mxPoint x="-3" y="742" as="sourcePoint" />
            <mxPoint x="247" y="517" as="targetPoint" />
          </mxGeometry>
        </mxCell>
        <mxCell id="H_xGiDRHiHV_fbQGNWIw-12" value="Click on the desired product" style="ellipse;whiteSpace=wrap;html=1;" vertex="1" parent="38S99PAp9FkhOumt0H_u-1">
          <mxGeometry x="206.5" y="1017" width="120" height="80" as="geometry" />
        </mxCell>
        <mxCell id="H_xGiDRHiHV_fbQGNWIw-13" value="Open product page details" style="ellipse;whiteSpace=wrap;html=1;" vertex="1" parent="38S99PAp9FkhOumt0H_u-1">
          <mxGeometry x="206.5" y="1140" width="120" height="80" as="geometry" />
        </mxCell>
        <mxCell id="H_xGiDRHiHV_fbQGNWIw-14" style="edgeStyle=orthogonalEdgeStyle;rounded=0;orthogonalLoop=1;jettySize=auto;html=1;entryX=0;entryY=0.5;entryDx=0;entryDy=0;curved=1;" edge="1" parent="38S99PAp9FkhOumt0H_u-1" source="H_xGiDRHiHV_fbQGNWIw-2" target="H_xGiDRHiHV_fbQGNWIw-12">
          <mxGeometry relative="1" as="geometry">
            <mxPoint x="140" y="909" as="sourcePoint" />
            <mxPoint x="340" y="1147" as="targetPoint" />
          </mxGeometry>
        </mxCell>
        <mxCell id="H_xGiDRHiHV_fbQGNWIw-15" style="edgeStyle=orthogonalEdgeStyle;rounded=0;orthogonalLoop=1;jettySize=auto;html=1;entryX=0;entryY=0.5;entryDx=0;entryDy=0;curved=1;" edge="1" parent="38S99PAp9FkhOumt0H_u-1" source="H_xGiDRHiHV_fbQGNWIw-2" target="H_xGiDRHiHV_fbQGNWIw-13">
          <mxGeometry relative="1" as="geometry">
            <mxPoint x="207" y="986" as="sourcePoint" />
            <mxPoint x="407" y="1224" as="targetPoint" />
          </mxGeometry>
        </mxCell>
      </root>
    </mxGraphModel>
  </diagram>
  <diagram name="uc.review.product" id="epXCIIkdq_Fyb69L9Wql">
    <mxGraphModel dx="1415" dy="1007" grid="0" gridSize="10" guides="1" tooltips="1" connect="1" arrows="1" fold="1" page="0" pageScale="1" pageWidth="850" pageHeight="1100" math="0" shadow="0">
      <root>
        <mxCell id="oq7OtIhLeAKczP1z072B-0" />
        <mxCell id="oq7OtIhLeAKczP1z072B-1" parent="oq7OtIhLeAKczP1z072B-0" />
        <mxCell id="oq7OtIhLeAKczP1z072B-2" value="Reviewing products" style="rounded=0;whiteSpace=wrap;html=1;verticalAlign=top;" vertex="1" parent="oq7OtIhLeAKczP1z072B-1">
          <mxGeometry x="134" y="387" width="265" height="616" as="geometry" />
        </mxCell>
        <mxCell id="oq7OtIhLeAKczP1z072B-3" style="edgeStyle=orthogonalEdgeStyle;rounded=0;orthogonalLoop=1;jettySize=auto;html=1;entryX=0;entryY=0.5;entryDx=0;entryDy=0;curved=1;" edge="1" parent="oq7OtIhLeAKczP1z072B-1" source="oq7OtIhLeAKczP1z072B-4" target="oq7OtIhLeAKczP1z072B-5">
          <mxGeometry relative="1" as="geometry" />
        </mxCell>
        <mxCell id="oq7OtIhLeAKczP1z072B-4" value="User" style="shape=umlActor;verticalLabelPosition=bottom;verticalAlign=top;html=1;outlineConnect=0;" vertex="1" parent="oq7OtIhLeAKczP1z072B-1">
          <mxGeometry x="-51" y="641" width="58" height="110" as="geometry" />
        </mxCell>
        <mxCell id="oq7OtIhLeAKczP1z072B-5" value="Login" style="ellipse;whiteSpace=wrap;html=1;" vertex="1" parent="oq7OtIhLeAKczP1z072B-1">
          <mxGeometry x="206.5" y="437" width="120" height="80" as="geometry" />
        </mxCell>
        <mxCell id="oq7OtIhLeAKczP1z072B-6" value="Access products details page" style="ellipse;whiteSpace=wrap;html=1;" vertex="1" parent="oq7OtIhLeAKczP1z072B-1">
          <mxGeometry x="206.5" y="542" width="120" height="80" as="geometry" />
        </mxCell>
        <mxCell id="oq7OtIhLeAKczP1z072B-7" value="Click in &quot;Add Review&quot;" style="ellipse;whiteSpace=wrap;html=1;" vertex="1" parent="oq7OtIhLeAKczP1z072B-1">
          <mxGeometry x="206.5" y="656" width="120" height="80" as="geometry" />
        </mxCell>
        <mxCell id="oq7OtIhLeAKczP1z072B-8" value="Type a text into field" style="ellipse;whiteSpace=wrap;html=1;" vertex="1" parent="oq7OtIhLeAKczP1z072B-1">
          <mxGeometry x="206.5" y="777" width="120" height="80" as="geometry" />
        </mxCell>
        <mxCell id="oq7OtIhLeAKczP1z072B-9" value="Click on submit" style="ellipse;whiteSpace=wrap;html=1;" vertex="1" parent="oq7OtIhLeAKczP1z072B-1">
          <mxGeometry x="206.5" y="894" width="120" height="80" as="geometry" />
        </mxCell>
        <mxCell id="oq7OtIhLeAKczP1z072B-10" style="edgeStyle=orthogonalEdgeStyle;rounded=0;orthogonalLoop=1;jettySize=auto;html=1;entryX=0;entryY=0.5;entryDx=0;entryDy=0;curved=1;" edge="1" parent="oq7OtIhLeAKczP1z072B-1" source="oq7OtIhLeAKczP1z072B-4" target="oq7OtIhLeAKczP1z072B-6">
          <mxGeometry relative="1" as="geometry">
            <mxPoint x="-23" y="722" as="sourcePoint" />
            <mxPoint x="217" y="487" as="targetPoint" />
          </mxGeometry>
        </mxCell>
        <mxCell id="oq7OtIhLeAKczP1z072B-11" style="edgeStyle=orthogonalEdgeStyle;rounded=0;orthogonalLoop=1;jettySize=auto;html=1;entryX=0;entryY=0.5;entryDx=0;entryDy=0;curved=1;" edge="1" parent="oq7OtIhLeAKczP1z072B-1" source="oq7OtIhLeAKczP1z072B-4" target="oq7OtIhLeAKczP1z072B-7">
          <mxGeometry relative="1" as="geometry">
            <mxPoint x="-23" y="722" as="sourcePoint" />
            <mxPoint x="227" y="497" as="targetPoint" />
          </mxGeometry>
        </mxCell>
        <mxCell id="oq7OtIhLeAKczP1z072B-12" style="edgeStyle=orthogonalEdgeStyle;rounded=0;orthogonalLoop=1;jettySize=auto;html=1;entryX=0;entryY=0.5;entryDx=0;entryDy=0;curved=1;" edge="1" parent="oq7OtIhLeAKczP1z072B-1" source="oq7OtIhLeAKczP1z072B-4" target="oq7OtIhLeAKczP1z072B-8">
          <mxGeometry relative="1" as="geometry">
            <mxPoint x="-13" y="732" as="sourcePoint" />
            <mxPoint x="237" y="507" as="targetPoint" />
          </mxGeometry>
        </mxCell>
        <mxCell id="oq7OtIhLeAKczP1z072B-13" style="edgeStyle=orthogonalEdgeStyle;rounded=0;orthogonalLoop=1;jettySize=auto;html=1;entryX=0;entryY=0.5;entryDx=0;entryDy=0;curved=1;" edge="1" parent="oq7OtIhLeAKczP1z072B-1" source="oq7OtIhLeAKczP1z072B-4" target="oq7OtIhLeAKczP1z072B-9">
          <mxGeometry relative="1" as="geometry">
            <mxPoint x="-3" y="742" as="sourcePoint" />
            <mxPoint x="247" y="517" as="targetPoint" />
          </mxGeometry>
        </mxCell>
      </root>
    </mxGraphModel>
  </diagram>
  <diagram name="uc.recommend.product" id="2TFvBzBSwG4VuUi8CYqf">
    <mxGraphModel dx="1811" dy="1007" grid="0" gridSize="10" guides="1" tooltips="1" connect="1" arrows="1" fold="1" page="0" pageScale="1" pageWidth="850" pageHeight="1100" math="0" shadow="0">
      <root>
        <mxCell id="EZIhtyYXA__uUnwcr1X4-0" />
        <mxCell id="EZIhtyYXA__uUnwcr1X4-1" parent="EZIhtyYXA__uUnwcr1X4-0" />
        <mxCell id="EZIhtyYXA__uUnwcr1X4-2" value="Recommending products" style="rounded=0;whiteSpace=wrap;html=1;verticalAlign=top;" parent="EZIhtyYXA__uUnwcr1X4-1" vertex="1">
          <mxGeometry x="134" y="387" width="265" height="738" as="geometry" />
        </mxCell>
        <mxCell id="EZIhtyYXA__uUnwcr1X4-3" style="edgeStyle=orthogonalEdgeStyle;rounded=0;orthogonalLoop=1;jettySize=auto;html=1;entryX=0;entryY=0.5;entryDx=0;entryDy=0;curved=1;" parent="EZIhtyYXA__uUnwcr1X4-1" source="EZIhtyYXA__uUnwcr1X4-4" target="EZIhtyYXA__uUnwcr1X4-5" edge="1">
          <mxGeometry relative="1" as="geometry" />
        </mxCell>
        <mxCell id="EZIhtyYXA__uUnwcr1X4-4" value="User" style="shape=umlActor;verticalLabelPosition=bottom;verticalAlign=top;html=1;outlineConnect=0;" parent="EZIhtyYXA__uUnwcr1X4-1" vertex="1">
          <mxGeometry x="-51" y="641" width="58" height="110" as="geometry" />
        </mxCell>
        <mxCell id="EZIhtyYXA__uUnwcr1X4-5" value="Login" style="ellipse;whiteSpace=wrap;html=1;" parent="EZIhtyYXA__uUnwcr1X4-1" vertex="1">
          <mxGeometry x="206.5" y="437" width="120" height="80" as="geometry" />
        </mxCell>
        <mxCell id="EZIhtyYXA__uUnwcr1X4-6" value="Access products details page" style="ellipse;whiteSpace=wrap;html=1;" parent="EZIhtyYXA__uUnwcr1X4-1" vertex="1">
          <mxGeometry x="206.5" y="542" width="120" height="80" as="geometry" />
        </mxCell>
        <mxCell id="EZIhtyYXA__uUnwcr1X4-7" value="Click in &quot;Add Comment&quot;" style="ellipse;whiteSpace=wrap;html=1;" parent="EZIhtyYXA__uUnwcr1X4-1" vertex="1">
          <mxGeometry x="206.5" y="656" width="120" height="80" as="geometry" />
        </mxCell>
        <mxCell id="EZIhtyYXA__uUnwcr1X4-8" value="Type a text into field" style="ellipse;whiteSpace=wrap;html=1;" parent="EZIhtyYXA__uUnwcr1X4-1" vertex="1">
          <mxGeometry x="206.5" y="777" width="120" height="80" as="geometry" />
        </mxCell>
        <mxCell id="EZIhtyYXA__uUnwcr1X4-9" value="Click on submit" style="ellipse;whiteSpace=wrap;html=1;" parent="EZIhtyYXA__uUnwcr1X4-1" vertex="1">
          <mxGeometry x="206.5" y="894" width="120" height="80" as="geometry" />
        </mxCell>
        <mxCell id="EZIhtyYXA__uUnwcr1X4-10" style="edgeStyle=orthogonalEdgeStyle;rounded=0;orthogonalLoop=1;jettySize=auto;html=1;entryX=0;entryY=0.5;entryDx=0;entryDy=0;curved=1;" parent="EZIhtyYXA__uUnwcr1X4-1" source="EZIhtyYXA__uUnwcr1X4-4" target="EZIhtyYXA__uUnwcr1X4-6" edge="1">
          <mxGeometry relative="1" as="geometry">
            <mxPoint x="-23" y="722" as="sourcePoint" />
            <mxPoint x="217" y="487" as="targetPoint" />
          </mxGeometry>
        </mxCell>
        <mxCell id="EZIhtyYXA__uUnwcr1X4-11" style="edgeStyle=orthogonalEdgeStyle;rounded=0;orthogonalLoop=1;jettySize=auto;html=1;entryX=0;entryY=0.5;entryDx=0;entryDy=0;curved=1;" parent="EZIhtyYXA__uUnwcr1X4-1" source="EZIhtyYXA__uUnwcr1X4-4" target="EZIhtyYXA__uUnwcr1X4-7" edge="1">
          <mxGeometry relative="1" as="geometry">
            <mxPoint x="-23" y="722" as="sourcePoint" />
            <mxPoint x="227" y="497" as="targetPoint" />
          </mxGeometry>
        </mxCell>
        <mxCell id="EZIhtyYXA__uUnwcr1X4-12" style="edgeStyle=orthogonalEdgeStyle;rounded=0;orthogonalLoop=1;jettySize=auto;html=1;entryX=0;entryY=0.5;entryDx=0;entryDy=0;curved=1;" parent="EZIhtyYXA__uUnwcr1X4-1" source="EZIhtyYXA__uUnwcr1X4-4" target="EZIhtyYXA__uUnwcr1X4-8" edge="1">
          <mxGeometry relative="1" as="geometry">
            <mxPoint x="-13" y="732" as="sourcePoint" />
            <mxPoint x="237" y="507" as="targetPoint" />
          </mxGeometry>
        </mxCell>
        <mxCell id="EZIhtyYXA__uUnwcr1X4-13" style="edgeStyle=orthogonalEdgeStyle;rounded=0;orthogonalLoop=1;jettySize=auto;html=1;entryX=0;entryY=0.5;entryDx=0;entryDy=0;curved=1;" parent="EZIhtyYXA__uUnwcr1X4-1" source="EZIhtyYXA__uUnwcr1X4-4" target="EZIhtyYXA__uUnwcr1X4-9" edge="1">
          <mxGeometry relative="1" as="geometry">
            <mxPoint x="-3" y="742" as="sourcePoint" />
            <mxPoint x="247" y="517" as="targetPoint" />
          </mxGeometry>
        </mxCell>
        <mxCell id="P5q7ayKY6TeGlErJj-Ii-0" value="Can select the &quot;Recommend&quot; Checkbox" style="ellipse;whiteSpace=wrap;html=1;" parent="EZIhtyYXA__uUnwcr1X4-1" vertex="1">
          <mxGeometry x="206.5" y="1011" width="120" height="80" as="geometry" />
        </mxCell>
        <mxCell id="P5q7ayKY6TeGlErJj-Ii-1" style="edgeStyle=orthogonalEdgeStyle;rounded=0;orthogonalLoop=1;jettySize=auto;html=1;entryX=0;entryY=0.5;entryDx=0;entryDy=0;curved=1;" parent="EZIhtyYXA__uUnwcr1X4-1" source="EZIhtyYXA__uUnwcr1X4-4" target="P5q7ayKY6TeGlErJj-Ii-0" edge="1">
          <mxGeometry relative="1" as="geometry">
            <mxPoint x="160" y="961" as="sourcePoint" />
            <mxPoint x="360" y="1199" as="targetPoint" />
          </mxGeometry>
        </mxCell>
      </root>
    </mxGraphModel>
  </diagram>
</mxfile>
